<?xml version="1.0" encoding="UTF-8" standalone="no"?>
<svg
   version="1.1"
   style="display: block;"
   viewBox="0 0 2048 2048"
   width="1024"
   height="1024"
   preserveAspectRatio="none"
   id="svg182"
   sodipodi:docname="logo.svg"
   inkscape:version="1.4.2 (ebf0e940d0, 2025-05-08)"
   xmlns:inkscape="http://www.inkscape.org/namespaces/inkscape"
   xmlns:sodipodi="http://sodipodi.sourceforge.net/DTD/sodipodi-0.dtd"
   xmlns:xlink="http://www.w3.org/1999/xlink"
   xmlns="http://www.w3.org/2000/svg"
   xmlns:svg="http://www.w3.org/2000/svg">
  <sodipodi:namedview
     id="namedview182"
     pagecolor="#ffffff"
     bordercolor="#000000"
     borderopacity="0.25"
     inkscape:showpageshadow="2"
     inkscape:pageopacity="0.0"
     inkscape:pagecheckerboard="0"
     inkscape:deskcolor="#d1d1d1"
     inkscape:zoom="0.55657038"
     inkscape:cx="426.72052"
     inkscape:cy="494.09744"
     inkscape:window-width="1920"
     inkscape:window-height="1010"
     inkscape:window-x="0"
     inkscape:window-y="0"
     inkscape:window-maximized="1"
     inkscape:current-layer="svg182" />
  <defs
     id="defs36">
    <linearGradient
       id="linearGradient235"
       inkscape:collect="always">
      <stop
         style="stop-color:#fe9831;stop-opacity:1;"
         offset="0"
         id="stop235" />
      <stop
         style="stop-color:#5fdaf9;stop-opacity:1;"
         offset="1"
         id="stop236" />
    </linearGradient>
    <linearGradient
       id="linearGradient233"
       inkscape:collect="always">
      <stop
         style="stop-color:#fe9831;stop-opacity:1;"
         offset="0"
         id="stop233" />
      <stop
         style="stop-color:#5fdaf9;stop-opacity:1;"
         offset="1"
         id="stop234" />
    </linearGradient>
    <linearGradient
       id="Gradient1"
       gradientUnits="userSpaceOnUse"
       x1="1508.61"
       y1="1320.36"
       x2="1525.87"
       y2="1304.66"
       gradientTransform="translate(-7.1868719,132.95713)">
      <stop
         class="stop0"
         offset="0"
         stop-opacity="1"
         stop-color="rgb(27,51,96)"
         id="stop1" />
      <stop
         class="stop1"
         offset="1"
         stop-opacity="1"
         stop-color="rgb(26,89,156)"
         id="stop2" />
    </linearGradient>
    <linearGradient
       id="Gradient2"
       gradientUnits="userSpaceOnUse"
       x1="1571.85"
       y1="1260.32"
       x2="1554.17"
       y2="1274.46"
       gradientTransform="translate(-7.1868719,132.95713)">
      <stop
         class="stop0"
         offset="0"
         stop-opacity="1"
         stop-color="rgb(22,53,102)"
         id="stop3" />
      <stop
         class="stop1"
         offset="1"
         stop-opacity="1"
         stop-color="rgb(27,84,154)"
         id="stop4" />
    </linearGradient>
    <linearGradient
       id="Gradient3"
       gradientUnits="userSpaceOnUse"
       x1="1507.82"
       y1="1256.19"
       x2="1526.94"
       y2="1274.06"
       gradientTransform="translate(-7.1868719,132.95713)">
      <stop
         class="stop0"
         offset="0"
         stop-opacity="1"
         stop-color="rgb(27,49,96)"
         id="stop5" />
      <stop
         class="stop1"
         offset="1"
         stop-opacity="1"
         stop-color="rgb(24,89,160)"
         id="stop6" />
    </linearGradient>
    <linearGradient
       id="Gradient4"
       gradientUnits="userSpaceOnUse"
       x1="963.935"
       y1="1701.32"
       x2="1189.09"
       y2="1697.62">
      <stop
         class="stop0"
         offset="0"
         stop-opacity="1"
         stop-color="rgb(168,156,144)"
         id="stop7" />
      <stop
         class="stop1"
         offset="1"
         stop-opacity="1"
         stop-color="rgb(116,170,195)"
         id="stop8" />
    </linearGradient>
    <linearGradient
       id="Gradient5"
       gradientUnits="userSpaceOnUse"
       x1="1181.26"
       y1="474.133"
       x2="1266.19"
       y2="497.495"
       gradientTransform="translate(-7.1868719,132.95713)">
      <stop
         class="stop0"
         offset="0"
         stop-opacity="1"
         stop-color="rgb(188,132,97)"
         id="stop9" />
      <stop
         class="stop1"
         offset="1"
         stop-opacity="1"
         stop-color="rgb(150,136,143)"
         id="stop10" />
    </linearGradient>
    <linearGradient
       id="Gradient6"
       gradientUnits="userSpaceOnUse"
       x1="745.03"
       y1="1182.43"
       x2="950.766"
       y2="1251.85"
       gradientTransform="translate(-7.1868719,132.95713)">
      <stop
         class="stop0"
         offset="0"
         stop-opacity="1"
         stop-color="rgb(94,62,50)"
         id="stop11" />
      <stop
         class="stop1"
         offset="1"
         stop-opacity="1"
         stop-color="rgb(60,73,102)"
         id="stop12" />
    </linearGradient>
    <linearGradient
       id="Gradient7"
       gradientUnits="userSpaceOnUse"
       x1="1011.94"
       y1="472.14"
       x2="1228.55"
       y2="511.777"
       gradientTransform="translate(-7.1868719,132.95713)">
      <stop
         class="stop0"
         offset="0"
         stop-opacity="1"
         stop-color="rgb(122,68,39)"
         id="stop13" />
      <stop
         class="stop1"
         offset="1"
         stop-opacity="1"
         stop-color="rgb(85,78,85)"
         id="stop14" />
    </linearGradient>
    <linearGradient
       id="Gradient8"
       gradientUnits="userSpaceOnUse"
       x1="987.481"
       y1="863.048"
       x2="1009.9"
       y2="874.149"
       gradientTransform="translate(-7.1868719,132.95713)">
      <stop
         class="stop0"
         offset="0"
         stop-opacity="1"
         stop-color="rgb(218,157,125)"
         id="stop15" />
      <stop
         class="stop1"
         offset="1"
         stop-opacity="1"
         stop-color="rgb(195,163,150)"
         id="stop16" />
    </linearGradient>
    <linearGradient
       id="Gradient9"
       gradientUnits="userSpaceOnUse"
       x1="878.867"
       y1="658.459"
       x2="1055.72"
       y2="815.538"
       gradientTransform="translate(-7.1868719,132.95713)">
      <stop
         class="stop0"
         offset="0"
         stop-opacity="1"
         stop-color="rgb(145,74,34)"
         id="stop17" />
      <stop
         class="stop1"
         offset="1"
         stop-opacity="1"
         stop-color="rgb(92,90,105)"
         id="stop18" />
    </linearGradient>
    <linearGradient
       id="Gradient10"
       gradientUnits="userSpaceOnUse"
       x1="910.343"
       y1="1348.67"
       x2="1017.17"
       y2="1380.59"
       gradientTransform="translate(-7.1868719,132.95713)">
      <stop
         class="stop0"
         offset="0"
         stop-opacity="1"
         stop-color="rgb(57,71,98)"
         id="stop19" />
      <stop
         class="stop1"
         offset="1"
         stop-opacity="1"
         stop-color="rgb(43,86,136)"
         id="stop20" />
    </linearGradient>
    <linearGradient
       id="Gradient11"
       gradientUnits="userSpaceOnUse"
       x1="762.08"
       y1="1164.84"
       x2="1020.37"
       y2="1251.66"
       gradientTransform="translate(-7.1868719,132.95713)">
      <stop
         class="stop0"
         offset="0"
         stop-opacity="1"
         stop-color="rgb(93,63,54)"
         id="stop21" />
      <stop
         class="stop1"
         offset="1"
         stop-opacity="1"
         stop-color="rgb(45,81,125)"
         id="stop22" />
    </linearGradient>
    <linearGradient
       id="Gradient12"
       gradientUnits="userSpaceOnUse"
       x1="898.69"
       y1="1095.24"
       x2="1141.32"
       y2="1161.71"
       gradientTransform="translate(-7.1868719,132.95713)">
      <stop
         class="stop0"
         offset="0"
         stop-opacity="1"
         stop-color="rgb(191,154,136)"
         id="stop23" />
      <stop
         class="stop1"
         offset="1"
         stop-opacity="1"
         stop-color="rgb(51,170,252)"
         id="stop24" />
    </linearGradient>
    <linearGradient
       id="Gradient13"
       gradientUnits="userSpaceOnUse"
       x1="1110.75"
       y1="750.037"
       x2="1102.85"
       y2="744.196"
       gradientTransform="translate(-7.1868719,132.95713)">
      <stop
         class="stop0"
         offset="0"
         stop-opacity="1"
         stop-color="rgb(81,97,129)"
         id="stop25" />
      <stop
         class="stop1"
         offset="1"
         stop-opacity="1"
         stop-color="rgb(77,121,145)"
         id="stop26" />
    </linearGradient>
    <linearGradient
       id="Gradient14"
       gradientUnits="userSpaceOnUse"
       x1="1152.36"
       y1="646.421"
       x2="1257.74"
       y2="746.646"
       gradientTransform="translate(-7.1868719,132.95713)">
      <stop
         class="stop0"
         offset="0"
         stop-opacity="1"
         stop-color="rgb(76,90,111)"
         id="stop27" />
      <stop
         class="stop1"
         offset="1"
         stop-opacity="1"
         stop-color="rgb(48,103,154)"
         id="stop28" />
    </linearGradient>
    <linearGradient
       id="Gradient15"
       gradientUnits="userSpaceOnUse"
       x1="1052.43"
       y1="592.458"
       x2="1202.92"
       y2="720.816"
       gradientTransform="translate(-7.1868719,132.95713)">
      <stop
         class="stop0"
         offset="0"
         stop-opacity="1"
         stop-color="rgb(113,74,57)"
         id="stop29" />
      <stop
         class="stop1"
         offset="1"
         stop-opacity="1"
         stop-color="rgb(59,91,128)"
         id="stop30" />
    </linearGradient>
    <linearGradient
       id="Gradient16"
       gradientUnits="userSpaceOnUse"
       x1="1453.75"
       y1="1022.26"
       x2="1529.05"
       y2="1040.11"
       gradientTransform="translate(-7.1868719,132.95713)">
      <stop
         class="stop0"
         offset="0"
         stop-opacity="1"
         stop-color="rgb(61,161,243)"
         id="stop31" />
      <stop
         class="stop1"
         offset="1"
         stop-opacity="1"
         stop-color="rgb(91,218,248)"
         id="stop32" />
    </linearGradient>
    <linearGradient
       id="Gradient17"
       gradientUnits="userSpaceOnUse"
       x1="1372.65"
       y1="1045.63"
       x2="1505.4"
       y2="1104.37"
       gradientTransform="translate(-7.1868719,132.95713)">
      <stop
         class="stop0"
         offset="0"
         stop-opacity="1"
         stop-color="rgb(60,157,228)"
         id="stop33" />
      <stop
         class="stop1"
         offset="1"
         stop-opacity="1"
         stop-color="rgb(60,186,249)"
         id="stop34" />
    </linearGradient>
    <linearGradient
       id="Gradient18"
       gradientUnits="userSpaceOnUse"
       x1="523.586"
       y1="622.441"
       x2="1033.99"
       y2="903.978"
       gradientTransform="translate(-7.1868719,132.95713)">
      <stop
         class="stop0"
         offset="0"
         stop-opacity="1"
         stop-color="rgb(255,153,47)"
         id="stop35" />
      <stop
         class="stop1"
         offset="1"
         stop-opacity="1"
         stop-color="rgb(224,139,90)"
         id="stop36" />
    </linearGradient>
    <linearGradient
       inkscape:collect="always"
       xlink:href="#linearGradient233"
       id="linearGradient234"
       x1="524.28131"
       y1="598.34821"
       x2="1641.2908"
       y2="1597.3235"
       gradientUnits="userSpaceOnUse" />
    <linearGradient
       inkscape:collect="always"
       xlink:href="#linearGradient235"
       id="linearGradient236"
       x1="559.49084"
       y1="754.37781"
       x2="1420.1567"
       y2="1343.7014"
       gradientUnits="userSpaceOnUse" />
  </defs>
  <g
     inkscape:groupmode="layer"
     id="layer1"
     inkscape:label="Background"
     style="display:block"
     transform="translate(25.154052,-71.868719)">
    <rect
       style="display:block;fill:#fd9831;fill-opacity:1;stroke:none;stroke-width:32.8934;stroke-linecap:round;stroke-linejoin:round"
       id="rect184"
       width="1597.3026"
       height="1597.3026"
       x="-8.7979794"
       y="480.97018"
       ry="155.39369"
       transform="rotate(-10.312204)" />
    <rect
       style="display:block;fill:#5fdaf9;fill-opacity:1;stroke:none;stroke-width:32.8934;stroke-linecap:round;stroke-linejoin:round"
       id="rect185"
       width="1597.3026"
       height="1597.3026"
       x="295.47885"
       y="232.93901"
       ry="155.39369"
       transform="rotate(4.6877962)" />
    <rect
       style="display:block;fill:#151b27;fill-opacity:1;stroke:none;stroke-width:30.7715;stroke-linecap:round;stroke-linejoin:round"
       id="rect183"
       width="1494.2606"
       height="1494.2606"
       x="489.93188"
       y="107.84128"
       ry="145.36925"
       transform="rotate(13.353072)" />
  </g>
  <g
     inkscape:groupmode="layer"
     id="layer5"
     inkscape:label="Cube"
     style="display:block">
    <path
       fill="url(#Gradient18)"
       d="m 998.34313,486.03713 0.28,-4.108 c 0.67,-10.127 6.27997,-19.088 17.14997,-20.111 5.34,-0.474 10.62,1.365 14.5,5.049 6.41,5.987 6.59,11.429 6.99,19.445 23.57,14.51 52.79,29.182 77.36,42.98 37.79,20.608 82.99,45.306 119.5,67.508 12.11,-7.327 17.97,-6.85 29.05,2.356 3.15,1.712 1.66,1.497 3.47,4.9 0.05,0.103 0.81,2.904 0.82,2.98 1.08,5.646 8.27,11.562 13.15,14.335 9.82,5.11 24.82,2.1 34.79,6.298 10.53,4.429 20.73,11.561 31.47,15.747 15.23,5.935 30.33,9.814 44.23,18.709 4.09,2.611 9.07,4.825 13.27,7.318 10.5,5.621 21.44,10.323 32.04,15.702 7.41,3.844 17.05,11.067 24.44,15.54 4.32,2.611 13.5,8.443 16.94,11.749 5.8,5.573 11.98,14.822 17.39,20.949 8.26,9.368 15.99,18.096 19.59,30.293 1.06,3.614 3.52,10.424 5.32,13.741 2.26,4.171 0.4,9.951 1.23,13.506 2.21,9.543 3.44,16.721 3.92,26.608 0.82,16.874 -1.52,32.888 -2.66,49.679 -1.35,19.819 0.54,40.045 -6.65,59.056 -2.38,6.294 -10.67,9.715 -12.33,11.588 -3.39,3.813 2.58,13.775 -4.24,19.354 -1.74,0.136 -3.63,0.328 -5.37,0.388 4.79,4.902 -0.4,22.083 1.83,30.639 2.77,10.589 6.06,22.75397 7.3,33.88397 0.72,6.441 0.98,12.101 3.45,17.925 l 0.77,1.851 c 4.8,11.367 12.01,20.061 15.12,31.838 4.5,17.059 2.26,35.543 3.28,53.278 0.48,8.426 2.96,21.406 2.82,29.056 -0.17,9.17 -3.08,25.86 -4.98,35.27 -1.85,9.2 1.48,20.75 1.35,29.02 -0.38,23.13 2.6,56.12 -10.19,75.7 -1.28,9 -5.02,29.34 -12.32,35.13 -3.92,3.1 -6.68,3.24 -9.02,8.57 -2.93,6.64 -9.91,10.05 -16.61,12.74 -8.75,10.87 -44.42,32.65 -58.43,37.76 -24.41,8.07 -46.36,14.86 -69.42,26.83 -16.32,8.47 -23.37,24.13 -35.85,33.97 -19.82,15.62 -44.02,30.42 -64.04,46.42 -4.89,3.91 -14.71,7.08 -20.09,10.76 -12.7,8.24 -23.09,13.04 -37.34,17.6 -7.28,2.33 -19.3,14.22 -27.42,16.88 -12.07,6.48 -27.5,8.87 -39.64,14.6 -21.53,10.15 -37.16,21.36 -61.06,25.91 -9.14,1.74 -25.85,32.17 -41.18,20.38 -22.76997,2.39 -20.65,-16 -35.71797,-28.01 -18.833,-15.02 -116.812,-59.02 -126.99,-72.34 -3.228,-2.49 -32.483,-17.88 -37.952,-20.84 -10.82,-6.02 -23.317,-12.66 -33.751,-19.1 -16.483,12.09 -30.381,1.58 -32.327,-17.28 -11.853,-8.38 -28.534,-16.55 -41.291,-23.62 l -68.254,-38.01 -57.621,-32.13 c -9.634,-5.36 -25.768,-14.95 -35.542,-18.42 -4.687,1.96 -9.136,3.87 -14.323,3.06 -5.478,-0.8 -10.379,-3.83 -13.543,-8.38 -3.057,-4.41 -4.16,-9.88 -3.049,-15.13 1.573,-7.7 5.777,-10.33 11.845,-14.39 l -0.121,-240.54 c -18.188,-11.852 -17.105,-25.267 -0.148,-37.483 l 0.03,-251.20797 -0.918,-0.522 c -6.273,-3.627 -9.887,-6.563 -11.677,-14.027 -1.245,-5.093 -0.383,-10.474 2.392,-14.923 2.804,-4.496 7.36,-7.614 12.566,-8.601 8.104,-1.564 11.673,1.052 17.965,5.245 51.406,-29.926 104.009,-58.224 155.573,-87.911 19.535,-11.247 39.309,-22.357 59.231,-32.89 l 0.291,-11.401 c 9.204,-15.143 18.642,-17.616 33.289,-7.984 63.396,-37.952 132.392,-72.724 196.063,-110.735 z"
       id="path37"
       style="display:block;fill:url(#Gradient18)" />
    <path
       fill="#5fdaf9"
       d="m 1263.1731,599.15613 c 3.15,1.712 1.66,1.497 3.47,4.9 0.05,0.103 0.81,2.904 0.82,2.98 1.08,5.646 8.27,11.562 13.15,14.335 9.82,5.11 24.82,2.1 34.79,6.298 10.53,4.429 20.73,11.561 31.47,15.747 15.23,5.935 30.33,9.814 44.23,18.709 4.09,2.611 9.07,4.825 13.27,7.318 10.5,5.621 21.44,10.323 32.04,15.702 7.41,3.844 17.05,11.067 24.44,15.54 4.32,2.611 13.5,8.443 16.94,11.749 5.8,5.573 11.98,14.822 17.39,20.949 8.26,9.368 15.99,18.096 19.59,30.293 1.06,3.614 3.52,10.424 5.32,13.741 2.26,4.171 0.4,9.951 1.23,13.506 2.21,9.543 3.44,16.721 3.92,26.608 0.82,16.874 -1.52,32.888 -2.66,49.679 -1.35,19.819 0.54,40.045 -6.65,59.056 -2.38,6.294 -10.67,9.715 -12.33,11.588 -3.39,3.813 2.58,13.775 -4.24,19.354 -1.74,0.136 -3.63,0.328 -5.37,0.388 4.79,4.902 -0.4,22.083 1.83,30.639 2.77,10.589 6.06,22.75397 7.3,33.88397 0.72,6.441 0.98,12.101 3.45,17.925 l 0.77,1.851 c 4.8,11.367 12.01,20.061 15.12,31.838 4.5,17.059 2.26,35.543 3.28,53.278 0.48,8.426 2.96,21.406 2.82,29.056 -0.17,9.17 -3.08,25.86 -4.98,35.27 -1.85,9.2 1.48,20.75 1.35,29.02 -0.38,23.13 2.6,56.12 -10.19,75.7 -1.28,9 -5.02,29.34 -12.32,35.13 -3.92,3.1 -6.68,3.24 -9.02,8.57 -2.93,6.64 -9.91,10.05 -16.61,12.74 -8.75,10.87 -44.42,32.65 -58.43,37.76 -24.41,8.07 -46.36,14.86 -69.42,26.83 -16.32,8.47 -23.37,24.13 -35.85,33.97 -19.82,15.62 -44.02,30.42 -64.04,46.42 -4.89,3.91 -14.71,7.08 -20.09,10.76 -12.7,8.24 -23.09,13.04 -37.34,17.6 -7.28,2.33 -19.3,14.22 -27.42,16.88 -12.07,6.48 -27.5,8.87 -39.64,14.6 -21.53,10.15 -37.16,21.36 -61.06,25.91 -9.14,1.74 -25.85,32.17 -41.18,20.38 6.94,-2.44 16.54,-8.08 15.09,-16.75 -0.35,-1.75 -0.63,-3.43 -0.93,-5.18 2.08,-3.89 3.05,-3.52 7.38,-6.29 l -0.45,-0.41 c -3.12,0.07 -2.66,0.51 -5.7,2.64 -8.58,-11.77 3.52,-13.27 11.43,-17.04 l 0.02,-1.01 c -3.09,-0.51 -6.93,1.82 -10.01,3.26 6.3,-4.13 16.89,-8.05 20.47,-13.92 0.42,-0.7 1.36,-2.25 0.39,-3.12 -6.81,-6.12 -13.52,-14.34 -15.35,-23.6 -1.5,-7.61 -1.87,-19.84 2.54,-26.49 1.5,-2.26 3.76,-2.41 6.11,-2.87 4.34,1.22 8.9,4.93 12.75,7.61 5.45,0.22 9.88,1.26 13.84,-3.17 l -0.45,-2.57 c -4.8,-5.7 -13.13,-8.19 -20.07,-10.8 5.78,0.46 9.86,2.9 15.59,3.86 -1.42,-1.43 -0.82,-0.54 -1.59,-2.8 -1.45,-0.83 -3.95,-1.29 -4.99,-2.02 -5.38,-3.83 -15.53,-13.55 -17.68,-19.64 1.87,-2.41 1.87,-2.1 4.38,-3.99 0.68,-3.14 1.66,-5.46 2.78,-8.44 l 1.95,0.3 c 3.15,2.94 3.66,3.37 7.8,4.47 -10.89,-9.99 -17.82,-12.51 -24.52,-27.51 -0.15,-0.16 -0.3,-0.31 -0.45,-0.46 -18.04,-31.7 -18.44,-70.51 -18.01,-104.66 5.2,-3.69 6.47,-4.61 10.91,-9.45 0.36,-4.71 0.16,-9.18 0.06,-13.91 -3.77,-6.33 -4.99,-7.62 -11.29,-11.5 l 0.73,-254.567 c 5.32,-3.466 6.34,-4.223 10.64,-8.856 1,-4.293 1.84,-9.124 2.7,-13.491 8.53,-6.209 35.18,-20.55197 45.52,-26.67797 11.61,-6.878 36.57,-22.61 47.74,-27.511 -6.54,-1.613 -11.13,-3.735 -18.21,-5.025 -3.18,2.233 -35.06,20.033 -38.6,21.374 -13.86,8.857 -28.87,15.482 -42.32,24.727 l -9.26,-4.132 -0.46,-17.751 c -0.56,-27.142 0.98,-62.682 -0.86,-89.009 0.6,-5.428 0.37,-11.489 0.43,-16.997 0.39,-37.754 -0.55,-75.476 -0.07,-113.234 13.1,-6.872 15.29,-9.477 15.52,-25.033 l 55.85,-31.006 c 10.14,-5.55 22.19,-11.525 31.86,-17.567 31.17,-15.737 76.84,-41.136 107.14,-58.74 11.58,7.64 15.79,6.844 28.02,1.586 4.93,3.54 10.05,6.729 15.16,9.992 2.59,1.661 6.4,4.307 9.09,5.398 -3.66,-7.242 -14.82,-9.032 -21.21,-16.131 1.19,-2.041 6.7,-6.377 8.61,-5.301 6.74,3.796 13.67,9.547 21.56,10.382 -8.92,-5.896 -17.46,-9.384 -26.98,-16.314 -1.04,-6.738 -1.64,-8.761 -3.75,-15.107 z"
       id="path38"
       style="display:block" />
    <path
       fill="#224c84"
       d="m 1236.8231,929.72513 c 53.31,-40.786 207.68,-149.478 244.61,-38.711 4.64,13.915 8.33,32.313 9.03,46.984 -2.45,4.839 -0.63,12.758 0.9,17.905 1.19,0.9 1.28,1.133 2.63,1.693 4.79,4.902 -0.4,22.083 1.83,30.639 2.77,10.589 6.06,22.75397 7.3,33.88397 0.72,6.441 0.98,12.101 3.45,17.925 l 0.77,1.851 c 4.8,11.367 12.01,20.061 15.12,31.838 4.5,17.059 2.26,35.543 3.28,53.278 0.48,8.426 2.96,21.406 2.82,29.056 -0.17,9.17 -3.08,25.86 -4.98,35.27 -1.85,9.2 1.48,20.75 1.35,29.02 -0.38,23.13 2.6,56.12 -10.19,75.7 -1.28,9 -5.02,29.34 -12.32,35.13 -3.92,3.1 -6.68,3.24 -9.02,8.57 -2.93,6.64 -9.91,10.05 -16.61,12.74 -8.75,10.87 -44.42,32.65 -58.43,37.76 -24.41,8.07 -46.36,14.86 -69.42,26.83 -16.32,8.47 -23.37,24.13 -35.85,33.97 -19.82,15.62 -44.02,30.42 -64.04,46.42 -4.89,3.91 -14.71,7.08 -20.09,10.76 -12.7,8.24 -23.09,13.04 -37.34,17.6 -7.28,2.33 -19.3,14.22 -27.42,16.88 -12.07,6.48 -27.5,8.87 -39.64,14.6 -21.53,10.15 -37.16,21.36 -61.06,25.91 -9.14,1.74 -25.85,32.17 -41.18,20.38 6.94,-2.44 16.54,-8.08 15.09,-16.75 -0.35,-1.75 -0.63,-3.43 -0.93,-5.18 2.08,-3.89 3.05,-3.52 7.38,-6.29 l -0.45,-0.41 c -3.12,0.07 -2.66,0.51 -5.7,2.64 -8.58,-11.77 3.52,-13.27 11.43,-17.04 l 0.02,-1.01 c -3.09,-0.51 -6.93,1.82 -10.01,3.26 6.3,-4.13 16.89,-8.05 20.47,-13.92 0.42,-0.7 1.36,-2.25 0.39,-3.12 -6.81,-6.12 -13.52,-14.34 -15.35,-23.6 -1.5,-7.61 -1.87,-19.84 2.54,-26.49 1.5,-2.26 3.76,-2.41 6.11,-2.87 4.34,1.22 8.9,4.93 12.75,7.61 5.45,0.22 9.88,1.26 13.84,-3.17 l -0.45,-2.57 c -4.8,-5.7 -13.13,-8.19 -20.07,-10.8 5.78,0.46 9.86,2.9 15.59,3.86 6.43,0.82 17.92,10.45 27.65,11.77 29.77,4.02 60.6,-3.88 88.39,-14.12 10.54,-3.89 20.23,-10.07 30.79,-13.46 7.45,1.92 7.51,1.48 14.65,0.25 4.33,-5.54 33.72,-23.75 41.18,-29.68 68.19,-53.27 116.97,-127.5 138.81,-211.23 14.04,-54.29 13.86,-121.775 -19.71,-169.379 -4.21,-5.961 -9.25,-11.265 -12.77,-17.649 -6.97,-6.335 -16.42,-12.853 -25.33,-15.971 -73.79,-25.811 -151.15,43.063 -176.07,106.369 -3.62,-14.374 13.3,-56.548 20.31,-70.252 29.45,-57.167 80.44,-100.25997 141.72,-119.75997 -6.74,-3.85 -28.23,5.272 -36.24,4.942 -6.57,0.599 -19.72,7.171 -25.79,10.367 -87.17,45.88797 -150.24,153.01097 -136.91,252.08297 2.91,21.6 11.93,41.19 29.97,54.05 18.52,13.46 35.54,10.36 56.29,6.83 l -1.61,1.43 c -84.77,74.9 -152.57,9.3 -139.75,-89.63 13.49,-104.126 66.65,-188.83897 146.27,-254.99197 z"
       id="path39"
       style="display:block" />
    <path
       fill="#3ea4ea"
       d="m 1074.9731,1487.7571 c 6.43,0.82 17.92,10.45 27.65,11.77 29.77,4.02 60.6,-3.88 88.39,-14.12 10.54,-3.89 20.23,-10.07 30.79,-13.46 7.45,1.92 7.51,1.48 14.65,0.25 -13.33,11.83 -56.03,32.84 -73.6,41.88 l 1.79,0.5 c -10.92,6.87 -36.26,18.26 -49.22,24.44 -23.06,11.02 -48.75,26.16 -71.56,36.37 l -0.45,-0.41 c -3.12,0.07 -2.66,0.51 -5.7,2.64 -8.58,-11.77 3.52,-13.27 11.43,-17.04 l 0.02,-1.01 c -3.09,-0.51 -6.93,1.82 -10.01,3.26 6.3,-4.13 16.89,-8.05 20.47,-13.92 0.42,-0.7 1.36,-2.25 0.39,-3.12 -6.81,-6.12 -13.52,-14.34 -15.35,-23.6 -1.5,-7.61 -1.87,-19.84 2.54,-26.49 1.5,-2.26 3.76,-2.41 6.11,-2.87 4.34,1.22 8.9,4.93 12.75,7.61 5.45,0.22 9.88,1.26 13.84,-3.17 l -0.45,-2.57 c -4.8,-5.7 -13.13,-8.19 -20.07,-10.8 5.78,0.46 9.86,2.9 15.59,3.86 z"
       id="path40"
       style="display:block" />
    <path
       fill="#193d6f"
       d="m 1476.7931,1352.4971 c -6.79,2.67 -13.12,10.09 -15.17,10.66 -10.46,2.88 -26.74,12.1 -36.03,14.87 l 1.68,-4.1 c -3.61,1.62 -10.86,4.92 -14.37,2.62 0.9,-3 12.9,-5.88 16.66,-7.73 5.14,-2.52 9.49,-5.06 14.31,-8.13 25.33,-16.14 48.8,-37.28 57.26,-67.12 0.99,-3.41 0.13,-2.26 2.01,-5.91 l 0.98,0.74 c 1.93,-1.43 5.49,-18.83 6.3,-22.43 l 1.75,3.65 c 1.59,-1.81 1.55,-4.74 2.04,-7.6 l 0.88,0.35 c 1.56,-3.25 0.55,-2.64 2.95,-4.22 l 1.33,1.32 c 0.19,3.67 -0.83,5.24 -2.27,8.61 l -0.08,-0.44 c -8.75,15.82 -10.38,14.59 -11.54,31.33 -0.08,1.2 -11.98,31.16 -12.74,32.74 l 0.84,0.61 c 10.79,-3.51 18.42,-45.57 21.96,-56.35 0.61,-1.86 -0.56,-1.26 0.92,-4.29 3.82,8.31 -1.42,15.78 -1.72,24.38 -1.28,9 -5.02,29.34 -12.32,35.13 -3.92,3.1 -6.68,3.24 -9.02,8.57 -2.93,6.64 -9.91,10.05 -16.61,12.74 z"
       id="path41"
       style="display:block" />
    <path
       fill="#56b4e4"
       d="m 1383.9631,1044.2591 c 26.82,21.834 38.54,63.775 42.19,97.028 6.9,62.84 -16.29,133.5 -46.84,188.11 -8.49,15.16 -26.58,39.76 -37.74,53.26 -39.88,48.23 -92.54,88.35 -147.66,117.7 -5.04,2.69 -24.49,12.73 -29.27,14.22 l -1.79,-0.5 c 17.57,-9.04 60.27,-30.05 73.6,-41.88 4.33,-5.54 33.72,-23.75 41.18,-29.68 68.19,-53.27 116.97,-127.5 138.81,-211.23 14.04,-54.29 13.86,-121.775 -19.71,-169.379 -4.21,-5.961 -9.25,-11.265 -12.77,-17.649 z"
       id="path42"
       style="display:block" />
    <path
       fill="#3ea4ea"
       d="m 1308.3531,949.58713 c 11.68,-6.787 35.39,-7.954 48.52,-7.851 -4.73,1.471 -7.39,2.034 -12.28,2.909 -6.74,-3.85 -28.23,5.272 -36.24,4.942 z"
       id="path43"
       style="display:block" />
    <path
       fill="url(#Gradient17)"
       d="m 1414.9431,952.00813 c 8.84,3.421 22.59,9.062 29.74,15.5 64.32,43.06397 59.94,161.99997 58.73,230.03897 -0.73,41.32 3.86,103.34 -31.48,133.15 -13.03,14.82 -37.84,29.33 -55.63,37.82 -12.09,8.11 -30.04,15.33 -43.2,22.32 -9.15,4.86 -23.6,6.88 -34.22,10.43 10.88,-8.93 23.8,-15.43 34.73,-24.61 73.44,-61.95 107.18,-154.72 106.88,-249.11 -0.2,-64.582 -8.39,-110.642 -50.52,-161.45797 -5.11,-4.581 -10.12,-9.276 -15.03,-14.081 z"
       id="path44"
       style="display:block;fill:url(#Gradient17)" />
    <path
       fill="#5fdaf9"
       d="m 1414.9431,952.00813 c 8.84,3.421 22.59,9.062 29.74,15.5 64.32,43.06397 59.94,161.99997 58.73,230.03897 -0.73,41.32 3.86,103.34 -31.48,133.15 -13.03,14.82 -37.84,29.33 -55.63,37.82 -0.02,-4.23 25.45,-12.73 27.26,-18.69 -3.81,-0.32 -13.46,9.39 -19.47,7.91 l 0.44,-1 c 5.63,-2.38 25.32,-14.22 27.65,-19.18 l -0.86,-0.87 c -4.43,1.24 -15.87,9.15 -20.56,12.1 28.85,-22.61 48.58,-49.35 53.23,-86.53 1.81,-14.42 2,-28.98 3.93,-43.38 -0.71,-6.64 0.35,-17.33 0.63,-24.46 1.98,-51.37 2.24,-171.511 -36.48,-208.09497 l -2.84,1.069 c -4.11,-6.413 -12.32,-18.216 -19.26,-21.302 -5.11,-4.581 -10.12,-9.276 -15.03,-14.081 z"
       id="path45"
       style="display:block" />
    <path
       fill="url(#Gradient16)"
       d="m 1444.6831,967.50813 c 64.32,43.06397 59.94,161.99997 58.73,230.03897 -0.73,41.32 3.86,103.34 -31.48,133.15 0.02,-3.39 6.58,-11.4 9.45,-16.98 10.41,-20.25 17.48,-53.14 15.7,-76.13 4.11,-14.51 -0.88,-135.067 -4.7,-156.509 -1.13,-6.324 -6.77,-29.485 -8.67,-37.17 -2.21,-8.888 -7.67,-22.643 -8.31,-31.998 1.72,-0.666 0.86,-0.211 2.52,-1.444 -3.6,-12.79497 -30.95,-36.37997 -33.24,-42.95797 z"
       id="path46"
       style="display:block;fill:url(#Gradient16)" />
    <path
       fill="#193d6f"
       d="m 1206.2631,1504.7271 2.21,1.42 -0.32,1.53 c -6.66,5.44 -22.12,7.04 -22.95,8.03 -10.69,12.85 -10.83,9.63 -25.2,14.7 l -0.81,0.3 -1.63,-1.85 c 7.98,-11.59 35.61,-14.99 48.7,-24.13 z"
       id="path48"
       style="display:block" />
    <path
       fill="url(#Gradient15)"
       d="m 1125.5331,683.39113 c 31.17,-15.737 76.84,-41.136 107.14,-58.74 11.58,7.64 15.79,6.844 28.02,1.586 4.93,3.54 10.05,6.729 15.16,9.992 2.59,1.661 6.4,4.307 9.09,5.398 46.49,33.131 100.28,85.028 57.73,143.494 -10.07,13.83 -40.85,42.543 -56.74,51.363 -10.34,0.888 -71.77,47.983 -87.06,57.405 -7.44,4.585 -11.45,12.438 -20.08,15.416 l -0.73,-0.802 c 3.49,-8.272 21.37,-16.776 26.11,-26.874 -4.95,3.257 -44.38,37.715 -47.48,41.912 -1.92,0.45 -20.56,12.952 -21.86,14.423 -7.01,4.629 -14.3,9.622 -21.39,14.055 -3.18,2.233 -35.06,20.033 -38.6,21.374 -13.86,8.857 -28.87,15.482 -42.32,24.727 l -9.26,-4.132 -0.46,-17.751 c -0.56,-27.142 0.98,-62.682 -0.86,-89.009 0.6,-5.428 0.37,-11.489 0.43,-16.997 0.39,-37.754 -0.55,-75.476 -0.07,-113.234 13.1,-6.872 15.29,-9.477 15.52,-25.033 l 55.85,-31.006 c 10.14,-5.55 22.19,-11.525 31.86,-17.567 z"
       id="path50"
       style="display:block;fill:url(#Gradient15)" />
    <path
       fill="url(#Gradient14)"
       d="m 1275.8531,636.22913 c 2.59,1.661 6.4,4.307 9.09,5.398 46.49,33.131 100.28,85.028 57.73,143.494 -10.07,13.83 -40.85,42.543 -56.74,51.363 -10.34,0.888 -71.77,47.983 -87.06,57.405 -7.44,4.585 -11.45,12.438 -20.08,15.416 l -0.73,-0.802 c 3.49,-8.272 21.37,-16.776 26.11,-26.874 -4.95,3.257 -44.38,37.715 -47.48,41.912 -1.92,0.45 -20.56,12.952 -21.86,14.423 -7.01,4.629 -14.3,9.622 -21.39,14.055 -3.18,2.233 -35.06,20.033 -38.6,21.374 l -1.05,-0.661 c -3.27,1.176 -5.02,1.503 -7.48,4.13 l -0.93,-0.168 c 9.18,-15.306 18.74,-22.792 28.29,-35.82 11.8,-16.106 19.57,-27.443 34.29,-42.581 18.1,-18.622 55.1,-33.867 65.98,-57.274 5.94,-12.79 -5.28,-36.754 -11.21,-49.376 l 0.26,-1.909 c -3.05,-0.394 -5,-0.284 -7.33,-2.242 l 0.84,-1.362 c 2.28,-0.595 5.22,-1.106 7.59,-1.589 9.8,-22.185 17.73,-27.735 36.65,-40.411 0.4,-1.493 1.28,-3.72 1.82,-5.245 2.1,2.969 3.88,5.432 7.69,6.063 9.88,1.633 35.04,14.2 43.67,9.28 11.68,-6.664 17.38,-7.494 21.7,-19.952 11.77,-33.907 -6.19,-45.662 -16.4,-75.154 -3.21,-9.272 -0.96,-18.07 -3.37,-22.893 z"
       id="path51"
       style="display:block;fill:url(#Gradient14)" />
    <path
       fill="#224c84"
       d="m 1134.8331,937.96413 c 4.35,-1.712 6.95,-2.894 11.09,-5.064 -1.55,3.524 -7.71,14.855 -7.67,16.731 l 2.05,1.966 c -1.83,4.573 -11.21,13.961 -14.37,18.612 -10.06,14.785 -36.17,52.76597 -38.69,68.91997 -34.02,69.832 -55.28,161.238 -31.63,237.398 16.22,52.22 68.42,83.58 121.58,64.28 7.91,-1.88 18.93,-6.64 26.17,-10.37 47,-24.72 82.46,-66.84 98.8,-117.37 7.55,-23.86 12.16,-54.83 0.1,-77.97 -1.12,26.93 -6.28,46.46 -22.16,69.38 -24.14,34.84 -82.75,53 -87.69,-7.03 -1.31,-31.7 13.94,-60.96 33.96,-83.892 54.11,-61.964 126.31,-43.277 124.35,44.382 -1.34,60.35 -30.26,125.55 -73.76,167.91 l 0.99,2.77 c 24.82,-21.51 48.78,-47.76 64.2,-77.08 2.52,-4.79 5.23,-9.7 8.02,-14.34 15.21,-35.45 24.29,-65.77 23.58,-105.357 -0.18,-9.743 -4.76,-24.969 -4.58,-32.086 4.35,6.897 3.54,8.701 6.18,15.283 13.16,32.74 10.95,70.88 4.77,104.96 -0.99,5.47 -4.43,14.6 -4.98,19.85 -15.78,43.57 -30.26,75.88 -59.74,112.36 -2.86,3.55 -14.22,16.94 -17.23,18.98 -39.43,44.57 -116.88,92.35 -176.77,96.63 -15.37,1.1 -27.7,-0.17 -41.67,-6.6 -1.21,-0.56 -12.1,-5.58 -12.11,-5.58 -10.89,-9.99 -17.82,-12.51 -24.52,-27.51 -0.15,-0.16 -0.3,-0.31 -0.45,-0.46 -18.04,-31.7 -18.44,-70.51 -18.01,-104.66 5.2,-3.69 6.47,-4.61 10.91,-9.45 0.36,-4.71 0.16,-9.18 0.06,-13.91 -3.77,-6.33 -4.99,-7.62 -11.29,-11.5 l 0.73,-254.567 c 5.32,-3.466 6.34,-4.223 10.64,-8.856 1,-4.293 1.84,-9.124 2.7,-13.491 8.53,-6.209 35.18,-20.55197 45.52,-26.67797 11.61,-6.878 36.57,-22.61 47.74,-27.511 -6.54,-1.613 -11.13,-3.735 -18.21,-5.025 7.09,-4.433 14.38,-9.426 21.39,-14.055 z"
       id="path60"
       style="display:block" />
    <path
       fill="#2c5c90"
       d="m 1043.1031,1428.1271 c 5.22,3.04 13.31,20.23 25.87,25.4 4.21,1.73 15.59,8.93 21.52,10.28 29.32,6.7 54.34,-1.47 81.97,-9.53 2.79,-0.82 1.96,0.19 3.12,-1.88 -2.26,-0.92 -8.08,1.7 -11.41,2.67 -9.47,2.78 -18.86,3.91 -28.7,2.52 5.97,-1.99 18.31,-0.16 30.6,-4.99 24.01,-9.97 50.6,-23.19 72.25,-37.91 13.16,-8.94 29.33,-24.51 42.41,-34.6 12.04,-9.28 15.94,-26.41 30.91,-35.07 l 1.15,-0.65 -0.91,1.6 c -3.89,6.67 -9.88,12.25 -11.45,20.19 -0.5,2.52 -2.1,2.71 -2.26,5.03 -39.43,44.57 -116.88,92.35 -176.77,96.63 -15.37,1.1 -27.7,-0.17 -41.67,-6.6 -1.21,-0.56 -12.1,-5.58 -12.11,-5.58 -10.89,-9.99 -17.82,-12.51 -24.52,-27.51 z"
       id="path61"
       style="display:block" />
    <path
       fill="#3a7bac"
       d="m 1350.1731,1237.1971 c 15.21,-35.45 24.29,-65.77 23.58,-105.357 -0.18,-9.743 -4.76,-24.969 -4.58,-32.086 4.35,6.897 3.54,8.701 6.18,15.283 13.16,32.74 10.95,70.88 4.77,104.96 -0.99,5.47 -4.43,14.6 -4.98,19.85 -15.78,43.57 -30.26,75.88 -59.74,112.36 -2.86,3.55 -14.22,16.94 -17.23,18.98 0.16,-2.32 1.76,-2.51 2.26,-5.03 1.57,-7.94 7.56,-13.52 11.45,-20.19 l 0.91,-1.6 c 4.08,-5.81 12.67,-15.35 15.88,-20.52 9.14,-14.72 16.14,-32.58 24.82,-47.84 3.8,-6.68 9.37,-27.4 13.64,-33.28 2.99,7.99 -24.44,59.82 -29.48,72.16 16.33,-14.44 42.22,-89.98 43.84,-114.41 1.64,-24.88 3.57,-52.94 -4.92,-77.476 -0.77,-2.236 0.18,-2.502 -1.24,-4.292 -1.46,4.55 -0.35,11.807 -0.28,17.078 0.22,10.98 -0.46,21.95 -2.06,32.81 -1.92,13.33 -12.38,59.88 -22.82,68.6 z"
       id="path62"
       style="display:block" />
    <path
       fill="#56b4e4"
       d="m 1276.9631,1325.8471 0.99,2.77 c -3.68,4.46 -9.84,8.09 -14.77,10.97 4.47,-4.61 9.22,-9.21 13.78,-13.74 z"
       id="path63"
       style="display:block" />
    <path
       fill="#3a7bac"
       d="m 1242.9431,1145.4671 c 23.56,-0.63 26.19,27.12 6.61,31.74 -3.84,0.55 -7.68,1.06 -11.53,1.54 -1.85,-2.6 -4.41,-5.98 -5.71,-8.84 -4.39,-9.61 0.43,-21.45 10.63,-24.44 z"
       id="path67"
       style="display:block" />
    <path
       fill="#5fdaf9"
       d="m 1239.6631,1157.9971 c 6.58,-0.48 10.62,-1.08 13.29,5.78 -0.35,4.37 -0.3,4.14 -2.66,7.87 -11.41,0.85 -16.42,-2.15 -10.63,-13.65 z"
       id="path68"
       style="display:block" />
    <path
       fill="#2c5c90"
       d="m 1271.8231,1092.7491 c 7.62,0.537 7.87,-1.488 19.47,0.427 -0.52,1.322 -0.45,0.793 -2.37,1.784 l 4.24,2.005 c -6.45,4.157 -18.06,1.369 -24.19,1.645 -6.72,0.303 -16.05,12.547 -20.11,17.719 l -3.11,1.661 c -5.98,-2.21 -8.24,-1.065 -11.77,3.7 l -1.43,-0.318 c 1.8,-5.996 32.6,-27.798 39.27,-28.623 z"
       id="path69"
       style="display:block" />
    <path
       fill="#56b4e4"
       d="m 1284.9431,641.62713 c -3.66,-7.242 -14.82,-9.032 -21.21,-16.131 1.19,-2.041 6.7,-6.377 8.61,-5.301 6.74,3.796 13.67,9.547 21.56,10.382 11.21,4.74 28.86,15.87 40.04,21.981 -7.07,0.216 -26.17,-11.881 -32.36,-16.325 l -0.1,1.275 4.98,4.91 -0.49,0.833 c -5.37,-0.758 -7.36,-5.268 -12.83,-5.665 l -0.63,0.856 c 4.45,2.942 12,7.054 15.7,10.235 35.42,30.46 118.53,54.588 103.95,114.573 -3.31,13.596 -23.27,31.177 -34.89,38.264 -32.3,19.701 -65.25,38.321 -97.53,58.089 -104.96,67.342 -191.76,178.25397 -208.98,304.15397 -1.45,10.55 -9.2,24.69 -4.91,34.58 10.05,23.02 2.42,50.78 11.08,73.66 2.93,7.61 0.67,17.48 5.3,24.47 6.74,10.15 16.58,32.66 25.95,39.35 20.67,14.77 48.23,4.28 69.01,4.99 -53.16,19.3 -105.36,-12.06 -121.58,-64.28 -23.65,-76.16 -2.39,-167.566 31.63,-237.398 2.52,-16.154 28.63,-54.13497 38.69,-68.91997 3.16,-4.651 12.54,-14.039 14.37,-18.612 l -2.05,-1.966 c -0.04,-1.876 6.12,-13.207 7.67,-16.731 -4.14,2.17 -6.74,3.352 -11.09,5.064 1.3,-1.471 19.94,-13.973 21.86,-14.423 3.1,-4.197 42.53,-38.655 47.48,-41.912 -4.74,10.098 -22.62,18.602 -26.11,26.874 l 0.73,0.802 c 8.63,-2.978 12.64,-10.831 20.08,-15.416 15.29,-9.422 76.72,-56.517 87.06,-57.405 15.89,-8.82 46.67,-37.533 56.74,-51.363 42.55,-58.466 -11.24,-110.363 -57.73,-143.494 z"
       id="path72"
       style="display:block" />
    <path
       fill="#3a7bac"
       d="m 1156.6931,923.54113 c 3.1,-4.197 42.53,-38.655 47.48,-41.912 -4.74,10.098 -22.62,18.602 -26.11,26.874 l 0.73,0.802 c 8.63,-2.978 12.64,-10.831 20.08,-15.416 15.29,-9.422 76.72,-56.517 87.06,-57.405 -5.64,4.988 -16.26,11.599 -22.77,15.913 -14.17,9.307 -28.29,18.696 -42.36,28.164 -18.84,12.943 -28.17,22.714 -44.65,35.95 -40.24,35.525 -63.39,77.251 -88.91,122.61797 2.52,-16.154 28.63,-54.13497 38.69,-68.91997 3.16,-4.651 12.54,-14.039 14.37,-18.612 l -2.05,-1.966 c -0.04,-1.876 6.12,-13.207 7.67,-16.731 -4.14,2.17 -6.74,3.352 -11.09,5.064 1.3,-1.471 19.94,-13.973 21.86,-14.423 z"
       id="path73"
       style="display:block" />
    <path
       fill="#193d6f"
       d="m 1263.1731,599.15613 c 3.15,1.712 1.66,1.497 3.47,4.9 0.05,0.103 0.81,2.904 0.82,2.98 1.08,5.646 8.27,11.562 13.15,14.335 9.82,5.11 24.82,2.1 34.79,6.298 10.53,4.429 20.73,11.561 31.47,15.747 15.23,5.935 30.33,9.814 44.23,18.709 4.09,2.611 9.07,4.825 13.27,7.318 10.5,5.621 21.44,10.323 32.04,15.702 7.41,3.844 17.05,11.067 24.44,15.54 4.32,2.611 13.5,8.443 16.94,11.749 5.8,5.573 11.98,14.822 17.39,20.949 8.26,9.368 15.99,18.096 19.59,30.293 1.06,3.614 3.52,10.424 5.32,13.741 2.26,4.171 0.4,9.951 1.23,13.506 2.21,9.543 3.44,16.721 3.92,26.608 0.82,16.874 -1.52,32.888 -2.66,49.679 -1.35,19.819 0.54,40.045 -6.65,59.056 -2.38,6.294 -10.67,9.715 -12.33,11.588 -3.39,3.813 2.58,13.775 -4.24,19.354 -1.74,0.136 -3.63,0.328 -5.37,0.388 -1.35,-0.56 -1.44,-0.793 -2.63,-1.693 -1.53,-5.147 -3.35,-13.066 -0.9,-17.905 0.69,6.786 0.39,12.49 5.28,17.3 l 1.35,-0.219 c 7.87,-10.298 7.23,-118.312 5.21,-135.462 -13.33,-83.735 -52.4,-103.527 -121.31,-142.36 -14.78,-8.326 -31.06,-19.101 -47.05,-24.699 -11.18,-6.111 -28.83,-17.241 -40.04,-21.981 -8.92,-5.896 -17.46,-9.384 -26.98,-16.314 -1.04,-6.738 -1.64,-8.761 -3.75,-15.107 z"
       id="path75"
       style="display:block" />
    <path
       fill="#3ea4ea"
       d="m 1236.8231,929.72513 c 3.04,-7.248 18.96,-17.438 25.73,-22.021 11.79,-8.093 23.82,-15.838 36.06,-23.226 9.06,-5.342 20.03,-10.757 28.59,-16.461 23.41,-15.599 44.54,-34.098 70.65,-45.082 19.4,-8.163 32.02,-17.599 54.22,-11.485 7.31,1.925 17.88,5.743 24.97,5.836 -0.96,-2.991 -3.56,-2.52 -3.5,-5.824 l 2.32,0.7 c 9.7,8.803 20.3,64.097 19.73,78.218 l 2.2,-0.806 c 9.8,-12.766 -1.07,-58.64 4.51,-69.957 2.02,17.15 2.66,125.164 -5.21,135.462 l -1.35,0.219 c -4.89,-4.81 -4.59,-10.514 -5.28,-17.3 -0.7,-14.671 -4.39,-33.069 -9.03,-46.984 -36.93,-110.767 -191.3,-2.075 -244.61,38.711 z"
       id="path76"
       style="display:block" />
    <path
       fill="#3ea4ea"
       d="m 1375.1431,1239.8471 c 0.65,7.11 -3.53,16.65 -6.19,23.4 -13.14,33.85 -31.57,65.4 -54.6,93.47 -13.93,16.88 -32.14,34.41 -49.13,48.22 -3.5,2.84 -10.49,6.26 -10.77,9.11 3.39,5.01 4.68,5.02 6.11,10.75 -0.73,2.23 -0.23,1.34 -1.29,2.79 l 0.5,0.84 c 9.29,-4.91 26.33,-22.31 31.18,-24.68 l 0.68,0.84 c -3.8,3.85 -7.83,5.88 -11.78,9.36 -48.61,42.81 -110.55,74.4 -176,77.96 -14.17,0.77 -20.19,-5.45 -30.47,-6.95 -1.45,-0.83 -3.95,-1.29 -4.99,-2.02 -5.38,-3.83 -15.53,-13.55 -17.68,-19.64 1.87,-2.41 1.87,-2.1 4.38,-3.99 0.68,-3.14 1.66,-5.46 2.78,-8.44 l 1.95,0.3 c 3.15,2.94 3.66,3.37 7.8,4.47 0.01,0 10.9,5.02 12.11,5.58 13.97,6.43 26.3,7.7 41.67,6.6 59.89,-4.28 137.34,-52.06 176.77,-96.63 3.01,-2.04 14.37,-15.43 17.23,-18.98 29.48,-36.48 43.96,-68.79 59.74,-112.36 z"
       id="path77"
       style="display:block" />
    <path
       fill="url(#Gradient12)"
       d="m 1244.6193,863.40375 c 7.08,1.29 -68.0521,60.90083 -99.9439,87.28802 -16.5695,9.34765 -49.1523,26.98536 -60.7623,33.86336 -10.34,6.126 -36.99,20.46897 -45.52,26.67797 -0.86,4.367 -1.7,9.198 -2.7,13.491 -4.3,4.633 -5.32,5.39 -10.64,8.856 l -0.73,254.567 c 6.3,3.88 7.52,5.17 11.29,11.5 0.1,4.73 0.3,9.2 -0.06,13.91 -4.44,4.84 -5.71,5.76 -10.91,9.45 -0.43,34.15 -0.03,72.96 18.01,104.66 0.15,0.15 0.3,0.3 0.45,0.46 6.7,15 13.63,17.52 24.52,27.51 -4.14,-1.1 -4.65,-1.53 -7.8,-4.47 l -1.95,-0.3 c -1.12,2.98 -2.1,5.3 -2.78,8.44 -2.51,1.89 -2.51,1.58 -4.38,3.99 2.15,6.09 12.3,15.81 17.68,19.64 1.04,0.73 3.54,1.19 4.99,2.02 0.77,2.26 0.17,1.37 1.59,2.8 -5.73,-0.96 -9.81,-3.4 -15.59,-3.86 6.94,2.61 15.27,5.1 20.07,10.8 l 0.45,2.57 c -3.96,4.43 -8.39,3.39 -13.84,3.17 -3.85,-2.68 -8.41,-6.39 -12.75,-7.61 -2.35,0.46 -4.61,0.61 -6.11,2.87 -4.41,6.65 -4.04,18.88 -2.54,26.49 1.83,9.26 8.54,17.48 15.35,23.6 0.97,0.87 0.03,2.42 -0.39,3.12 -3.58,5.87 -14.17,9.79 -20.47,13.92 3.08,-1.44 6.92,-3.77 10.01,-3.26 l -0.02,1.01 c -7.91,3.77 -20.01,5.27 -11.43,17.04 3.04,-2.13 2.58,-2.57 5.7,-2.64 l 0.45,0.41 c -4.33,2.77 -5.3,2.4 -7.38,6.29 0.3,1.75 0.58,3.43 0.93,5.18 1.45,8.67 -8.15,14.31 -15.09,16.75 -22.76997,2.39 -20.65,-16 -35.71797,-28.01 -18.833,-15.02 -116.812,-59.02 -126.99,-72.34 -3.228,-2.49 -32.483,-17.88 -37.952,-20.84 1.571,-3.44 3.181,-4.14 4.942,-8.89 l -0.668,-1.68 0.214,-1.33 c 20.984,9.66 47.018,25.65 68.356,36.92 2.462,0.21 1.642,0.28 4.08,-0.23 3.73,-9.71 12.605,-23.89 15.411,-33.53 1.825,-6.26 -5.612,-43.43 12.062,-36.44 -15.057,-28.49 -37.008,-60.71 -52.881,-89.35 1.254,0.78 2.643,1.8 3.87,2.66 l 1.705,-1.36 c 0.409,-3.66 0.32,-4.63 0.024,-8.35 -13.887,-21.87 -27.594,-49.14 -41.478,-69.65 -1.126,-3.44 -12.825,-22.8 -15.076,-26.67 -11.847,-20.4 -24.272,-40.29 -35.284,-61.19 34.372,16.44 73.684,42.75 107.841,59.3 2.453,0.49 4.919,0.93 7.394,1.3 l 1.979,-2.31 0.698,1.58 -0.053,0.12 c -0.05,-0.78 -0.101,-1.57 -0.151,-2.35 -2.692,-1.97 -3.189,-2.67 -4.984,-5.32 -7.417,-4.91 -18.965,-10.39 -26.933,-15.05 -24.77,-14.51 -55.016,-28.75 -78.618,-44.72 -0.247,-4.84 -0.815,-6.44 -2.094,-11.22 11.395,-8.54 25.689,-16.62 37.804,-24.67 34.76,-23.101 70.514,-44.336 105.095,-67.756 22.415,-12.773 45.705,-30.677 67.93497,-43.147 l 1.33,-0.618 c -4.62997,-1.91 -3.32,-0.603 -5.47997,-4.582 -0.3,-7.648 4.69997,-17.821 7.57997,-25.39797 l 8.57,-4.498 0.38,-19.267 3.09,-3.022 1.78,0.126 c 1.16,3.46 1.03,3.929 1.23,7.491 1.02,-1.666 0.87,-1.231 1.47,-3.079 l 0.46,17.751 9.26,4.132 c 13.45,-9.245 28.46,-15.87 42.32,-24.727 3.54,-1.341 166.5962,-107.75638 169.7762,-109.98938 z"
       id="path78"
       style="display:block;fill:url(#Gradient12)"
       sodipodi:nodetypes="ccccccccccccccccccccccccccccccccccccccccccccccccccccccccccccccccccccccccccccccccc" />
    <path
       fill="#4d4c5c"
       d="m 1002.8531,1029.0841 c 4.08,1.32 5.02,0.896 7.56,3.579 1.63,21.983 0.26,50.822 0.68,73.506 1.11,59.818 -1.24,122.078 0.69,181.688 -3.05,1.88 -8.5,6 -11.47,5.96 -9.35097,-8.33 -52.07997,-29.95 -64.43997,-37.24 -9.902,-5.83 -25.963,-15.33 -36.209,-20.93 -7.417,-4.91 -18.965,-10.39 -26.933,-15.05 -24.77,-14.51 -55.016,-28.75 -78.618,-44.72 -0.247,-4.84 -0.815,-6.44 -2.094,-11.22 11.395,-8.54 25.689,-16.62 37.804,-24.67 34.76,-23.101 70.514,-44.336 105.095,-67.756 22.415,-12.773 45.705,-30.677 67.93497,-43.147 z"
       id="path79"
       style="display:block" />
    <path
       fill="url(#Gradient11)"
       d="m 786.94013,1183.3271 c 34.372,16.44 73.684,42.75 107.841,59.3 2.453,0.49 4.919,0.93 7.394,1.3 l 1.979,-2.31 0.698,1.58 -0.053,0.12 c -0.05,-0.78 -0.101,-1.57 -0.151,-2.35 -2.692,-1.97 -3.189,-2.67 -4.984,-5.32 10.246,5.6 26.307,15.1 36.209,20.93 12.36,7.29 55.089,28.91 64.43997,37.24 -0.73997,1.84 -1.99997,4.67 -2.58997,6.46 0.37,4.42 0.69,8.84 0.96,13.27 3.52997,5.41 6.69997,8.54 12.68997,11.27 l 0.19,1.59 c -1.0872,8.1422 -6.6933,221.8068 -7.1269,236.0492 -1.1411,-3.8716 -36.92207,-71.1792 -39.84907,-76.2692 -28.054,-48.77 -57.639,-96.67 -85.809,-145.35 -13.887,-21.87 -27.594,-49.14 -41.478,-69.65 -1.126,-3.44 -12.825,-22.8 -15.076,-26.67 -11.847,-20.4 -24.272,-40.29 -35.284,-61.19 z"
       id="path80"
       style="display:block;fill:url(#Gradient11)"
       sodipodi:nodetypes="cccccccccccccccccccc" />
    <path
       fill="#b99384"
       d="m 899.66413,1235.6471 c 10.246,5.6 26.307,15.1 36.209,20.93 12.36,7.29 55.089,28.91 64.43997,37.24 -0.73997,1.84 -1.99997,4.67 -2.58997,6.46 -5.234,-2.45 -11.731,-6.01 -16.696,-9.01 -27.639,-16.7 -59.352,-31.14 -86.246,-48.64 2.453,0.49 4.919,0.93 7.394,1.3 l 1.979,-2.31 0.698,1.58 -0.053,0.12 c -0.05,-0.78 -0.101,-1.57 -0.151,-2.35 -2.692,-1.97 -3.189,-2.67 -4.984,-5.32 z"
       id="path81"
       style="display:block" />
    <path
       fill="#193d6f"
       d="m 859.61513,1503.2571 c 14.337,7.08 29.534,15.97 43.681,23.68 31.785,17.23 63.413,34.76 94.877,52.57 0.54,7.51 1,11.97 7.04997,17.51 3.78,3.45 8.82,5.16 13.92,4.73 9.72,-0.79 14.35,-6.85 18.27,-14.89 1.45,8.67 -8.15,14.31 -15.09,16.75 -22.76997,2.39 -20.65,-16 -35.71797,-28.01 -18.833,-15.02 -116.812,-59.02 -126.99,-72.34 z"
       id="path84"
       style="display:block" />
    <path
       fill="#3ea4ea"
       d="m 1021.2031,1387.3071 1.68,1.29 c 3.44,6.11 0.28,18.63 0.37,26.05 0.15,14.12 0.47,28.21 0.77,42.34 l 1.34,0.76 -0.98,1.14 -0.29,-0.93 0.62,1 1.88,-3.9 1.1,0.58 c 1.44,6.22 0.75,5.88 -3.37,9.2 -0.46,5.58 -0.18,11.1 -0.02,16.7 -0.56,3.26 -1.06,5.71 -1.82,8.93 -1.57,-4.82 -0.04,-17.46 -0.68,-23.08 -2.98,-26.11 0.96,-54.5 -0.6,-80.08 z"
       id="path85"
       style="display:block" />
    <path
       fill="#684334"
       d="m 778.72313,900.78013 8.703,-4.18 c 12.506,5.09 36.126,19.056 48.444,25.927 l 70.207,38.942 c 13.62,7.545 29.817,16.991 43.597,23.708 11.041,6.746 56.73897,24.79997 45.589,39.24697 -5.87,1.517 -57.164,34.659 -63.449,39.869 -17.08,9.609 -38.817,25.032 -55.688,35.995 l -88.124,56.599 c -3.356,-1.85 -6.548,-3.24 -10.031,-4.82 0.33,-82.284 -1.347,-169.49997 0.752,-251.28697 z"
       id="path86"
       style="display:block" />
    <path
       fill="url(#Gradient9)"
       d="m 955.74313,972.39613 c -2.893,-3.063 -24.987,-14.571 -30.218,-17.387 l -73.417,-40.142 c -11.146,-6.047 -51.621,-26.817 -58.251,-33.436 -0.925,-4.533 2.467,-6.992 6.181,-9.185 40.08,-23.674 81.352,-48.569 121.542,-71.692 12.053,-6.935 72.213,-45.712 82.05297,-48.216 4.24,0.659 6.32,2.567 9.94,5.023 -0.02,39.315 -1.49,89.594 0.21,128.037 2.68,10.257 -0.3,36.095 1.74,41.243 2.22,0.847 2.07,0.77 4.44,0.392 2.61,-9.73 -0.85,-29.408 1.98,-39.805 1.84,26.327 0.3,61.867 0.86,89.009 -0.6,1.848 -0.45,1.413 -1.47,3.079 -0.2,-3.562 -0.07,-4.031 -1.23,-7.491 l -1.78,-0.126 -3.09,3.022 -0.38,19.267 -8.57,4.498 c -2.88,7.57697 -7.87997,17.74997 -7.57997,25.39797 l -3.44,0.54 c 11.14997,-14.447 -34.548,-32.50097 -45.589,-39.24697 l 0.607,-1.278 c 7.201,3.426 23.9,15.065 29.326,15.224 0.865,-2.473 3.05,-5.84 4.411,-9.232 l -0.974,-1.666 c -6.109,-1.794 -23.137,-11.42 -27.301,-15.829 z"
       id="path87"
       style="display:block;fill:url(#Gradient9)" />
    <path
       fill="url(#Gradient8)"
       d="m 955.74313,972.39613 c 7.648,2.483 39.15,20.575 46.41997,25.777 l 11.07,-5.23 0.15,-18.133 1.85,-0.089 -0.38,19.267 -8.57,4.498 c -2.88,7.57697 -7.87997,17.74997 -7.57997,25.39797 l -3.44,0.54 c 11.14997,-14.447 -34.548,-32.50097 -45.589,-39.24697 l 0.607,-1.278 c 7.201,3.426 23.9,15.065 29.326,15.224 0.865,-2.473 3.05,-5.84 4.411,-9.232 l -0.974,-1.666 c -6.109,-1.794 -23.137,-11.42 -27.301,-15.829 z"
       id="path88"
       style="display:block;fill:url(#Gradient8)" />
    <path
       fill="#b99384"
       d="m 1013.7831,885.39813 c 2.68,10.257 -0.3,36.095 1.74,41.243 2.22,0.847 2.07,0.77 4.44,0.392 2.61,-9.73 -0.85,-29.408 1.98,-39.805 1.84,26.327 0.3,61.867 0.86,89.009 -0.6,1.848 -0.45,1.413 -1.47,3.079 -0.2,-3.562 -0.07,-4.031 -1.23,-7.491 l -1.78,-0.126 -3.09,3.022 -1.85,0.089 c -0.11,-29.353 -0.36,-60.131 0.4,-89.412 z"
       id="path89"
       style="display:block" />
    <path
       fill="url(#Gradient7)"
       d="m 1022.3231,717.41613 c -0.89,-45.903 0.91,-93.061 -0.1,-139.379 0.28,-25.543 -1.16,-51.399 0.56,-76.852 0.2,-2.904 6.12,-3.975 8.25,-3.071 27.22,11.579 52.71,30.549 79.43,42.931 l 1.18,0.533 c 0.32,0.253 0.63,0.506 0.95,0.758 27.59,15.578 55.34,31.069 83.03,46.491 8.8,4.9 18.83,9.408 26.91,15.155 18.82,13.388 -5.98,18.697 -15.18,24.37 -15.15,9.354 -30.38,17.145 -45.89,25.696 -11.09,6.339 -34.32,17.349 -43.7,24.374 -5.1,1.67 -20.49,10.859 -26.07,13.897 -19.52,10.637 -39.17,22.946 -59.19,32.539 -4.05,-3.887 -5.29,-4.587 -10.18,-7.442 z"
       id="path90"
       style="display:block;fill:url(#Gradient7)" />
    <path
       fill="url(#Gradient6)"
       d="m 778.31913,1188.1071 c 13.311,19.82 25.413,43.17 38.069,63.63 3.248,5.25 11.292,20.43 14.718,24.4 7.209,6.12 17.456,29.94 20.737,31.81 6.271,-11.33 -14.524,-24.39 -14.543,-36.76 13.884,20.51 27.591,47.78 41.478,69.65 0.296,3.72 0.385,4.69 -0.024,8.35 l -1.705,1.36 c -1.227,-0.86 -2.616,-1.88 -3.87,-2.66 15.873,28.64 37.824,60.86 52.881,89.35 37.57508,61.2853 62.97926,109.6848 61.15426,115.9448 -27.51087,-9.2256 -53.90387,-25.5898 -88.62726,-45.9748 -2.438,0.51 -1.618,0.44 -4.08,0.23 -21.338,-11.27 -47.372,-27.26 -68.356,-36.92 l -0.214,1.33 0.668,1.68 c -1.761,4.75 -3.371,5.45 -4.942,8.89 -10.82,-6.02 -23.317,-12.66 -33.751,-19.1 3.96,-0.38 2.882,0.53 4.642,-1.58 0.504,-3.37 0.987,-5.57 1.797,-8.89 -1.912,-13.64 -3.836,-16.87 -16.455,-22.03 -0.685,-62.32 0.324,-124.79 0.01,-187.13 -0.092,-18.43 -0.168,-37.16 0.413,-55.58 z"
       id="path91"
       style="display:block;fill:url(#Gradient6)"
       sodipodi:nodetypes="ccccccccccccccccccccccc" />
    <path
       fill="#b99384"
       d="m 837.30013,1271.1871 c 13.884,20.51 27.591,47.78 41.478,69.65 0.296,3.72 0.385,4.69 -0.024,8.35 l -1.705,1.36 c -1.227,-0.86 -2.616,-1.88 -3.87,-2.66 -9.769,-15.95 -35.099,-56.59 -42.073,-71.75 7.209,6.12 17.456,29.94 20.737,31.81 6.271,-11.33 -14.524,-24.39 -14.543,-36.76 z"
       id="path92"
       style="display:block" />
    <path
       fill="#b99384"
       d="m 794.35113,1452.8471 c 6.095,3.42 27.703,14.14 31.8,17.67 l -0.214,1.33 0.668,1.68 c -1.761,4.75 -3.371,5.45 -4.942,8.89 -10.82,-6.02 -23.317,-12.66 -33.751,-19.1 3.96,-0.38 2.882,0.53 4.642,-1.58 0.504,-3.37 0.987,-5.57 1.797,-8.89 z"
       id="path93"
       style="display:block" />
    <path
       fill="url(#Gradient5)"
       d="m 1114.6231,529.29213 c 37.79,20.608 82.99,45.306 119.5,67.508 12.11,-7.327 17.97,-6.85 29.05,2.356 2.11,6.346 2.71,8.369 3.75,15.107 9.52,6.93 18.06,10.418 26.98,16.314 -7.89,-0.835 -14.82,-6.586 -21.56,-10.382 -1.91,-1.076 -7.42,3.26 -8.61,5.301 6.39,7.099 17.55,8.889 21.21,16.131 -2.69,-1.091 -6.5,-3.737 -9.09,-5.398 -5.11,-3.263 -10.23,-6.452 -15.16,-9.992 -12.23,5.258 -16.44,6.054 -28.02,-1.586 -30.3,17.604 -75.97,43.003 -107.14,58.74 5.22,-8.595 47.25,-25.595 56.99,-33.641 0.28,-0.903 0.57,-1.806 0.86,-2.709 l -1.13,-0.982 c -14.79,2.352 -47.4,29.057 -64.49,32.363 9.38,-7.025 32.61,-18.035 43.7,-24.374 15.51,-8.551 30.74,-16.342 45.89,-25.696 9.2,-5.673 34,-10.982 15.18,-24.37 -8.08,-5.747 -18.11,-10.255 -26.91,-15.155 -27.69,-15.422 -55.44,-30.913 -83.03,-46.491 -0.32,-0.252 -0.63,-0.505 -0.95,-0.758 9.69,-0.533 57.75,34.073 71.06,36.343 2.7,-1.115 2.56,-1.442 4.35,-3.857 -3.32,-8.045 -67.8,-35.007 -72.43,-44.772 z"
       id="path94"
       style="display:block;fill:url(#Gradient5)" />
    <path
       fill="#b99384"
       d="m 998.70313,1023.8841 c 2.15997,3.979 0.85,2.672 5.47997,4.582 l -1.33,0.618 c -22.22997,12.47 -45.51997,30.374 -67.93497,43.147 1.058,-6.381 33.185,-19.563 36.681,-26.875 0.603,-1.262 -0.377,-2.157 -1.278,-3.925 -6.869,3.903 -33.404,22.491 -38.507,22.862 6.285,-5.21 57.579,-38.352 63.449,-39.869 z"
       id="path95"
       style="display:block" />
    <path
       fill="#854823"
       d="m 554.67613,768.43313 c 12.456,4.828 47.572,25.317 60.927,32.63 46.162,25.625 92.466,50.995 138.909,76.107 2.599,13.932 2.954,16.335 15.257,23.818 l 0.076,239.05897 -6.843,0.93 c -13.893,-22.602 -28.276,-49.568 -41.212,-72.871 l -57.036,-102.12297 c -36.089,-64.676 -76.092,-132.077 -110.078,-197.55 z"
       id="path96"
       style="display:block" />
    <path
       fill="#854823"
       d="m 546.69013,774.61113 c 7.837,11.201 18.599,32.213 25.544,44.766 l 42.585,75.97 91.775,163.18697 c 16.89,30.099 34.244,59.939 50.431,90.433 2.13,4.02 3.471,5.12 2.424,8.46 -7.042,-2.62 -20.623,-11.03 -27.795,-15.05 l -59.409,-33.449 -70.406,-39.41 c -12.451,-6.876 -27.139,-14.623 -39.088,-21.844 -7.774,-4.697 1.297,-14.437 -14.821,-25.569 l -1.172,-0.796 c -0.44,-49.82297 -0.571,-99.64997 -0.392,-149.47497 0.017,-32.451 -0.735,-64.781 0.324,-97.223 z"
       id="path97"
       style="display:block" />
    <path
       fill="#854823"
       d="m 554.31113,1053.8641 c 4.02,0.542 180.357,98.853 199.062,110.743 l 1.765,14.2 c -26.278,15.29 -55.287,34.54 -81.109,50.89 -39.278,23.62 -79.242,50.24 -118.212,74.79 -2.842,-1.75 -6.156,-4.12 -8.978,-6.02 -0.293,-78.49 1.109,-161.99 -0.882,-240.079 z"
       id="path98"
       style="display:block" />
    <path
       fill="#684334"
       d="m 759.67113,1185.7171 c 2.833,1.4 7.264,4.41 10.082,6.2 l 0.046,165.35 c 0.003,15.6 1.288,60.31 -0.448,72.52 -2.346,2.77 -3.104,2.81 -6.438,4.07 -5.542,-0.47 -107.874,-58.98 -122.541,-67.13 -27.098,-14.93 -54.064,-30.09 -80.896,-45.49 0.141,-3.6 0.311,-6.12 0.745,-9.69 12.021,-9.24 42.069,-26.04 56.595,-35.49 46.859,-30.47 96.335,-59.33 142.855,-90.34 z"
       id="path99"
       style="display:block" />
    <path
       fill="#854823"
       d="m 956.40213,743.52813 c 13.585,-0.932 30.299,-0.818 43.89097,-0.475 -8.94097,6.395 -22.60697,13.963 -32.25697,19.657 l -50.477,29.866 c -42.463,24.859 -86.167,51.432 -128.778,75.498 -10.529,-7.946 -14.756,-7.47 -26.257,-2.101 -29.63,-14.617 -66.877,-36.631 -96.532,-52.923 -34.262,-18.416 -68.252,-37.334 -101.957,-56.749 39.057,-4.028 89.453,-3.399 129.349,-5.003 87.348,-3.511 175.672,-4.215 263.018,-7.77 z"
       id="path100"
       style="display:block" />
    <path
       fill="#854823"
       d="m 800.85913,624.89513 c 7.391,0.864 178.742,96.932 200.19397,108.705 -24.53097,2.095 -51.21997,1.858 -75.84197,2.54 -55.474,1.256 -110.941,2.831 -166.397,4.722 l -120.998,3.215 c -24.795,0.796 -46.772,2.383 -71.726,1.291 6.716,-4.932 21.094,-12.731 28.876,-17.168 l 54.823,-30.891 c 40.834,-22.85 85.274,-49.345 126.129,-71.235 11.873,3.914 13.892,5.682 24.941,-1.179 z"
       id="path101"
       style="display:block" />
    <path
       fill="#854823"
       d="m 1004.1931,496.75413 c 3.06,0.035 4.47,0.762 7.32,1.79 0.57,0.663 1.14,1.327 1.71,1.99 1.22,60.984 0.07,159.564 0.4,216.749 -3.37,2.536 -7.59,4.916 -11.25,7.119 -38.34497,-22.352 -81.71897,-44.114 -121.11097,-66.24 -22.905,-14.681 -51.702,-25.506 -73.785,-41.736 -1.477,-1.086 -0.183,-8.765 3.331,-10.85 7.175,-4.257 14.393,-8.257 21.663,-12.357 l 45.541,-25.605 c 41.891,-23.923 83.954,-47.544 126.18097,-70.86 z"
       id="path102"
       style="display:block" />
    <path
       fill="#684334"
       d="m 763.00213,1140.9771 6.843,-0.93 c 0.091,3.52 0.683,6.86 -1.029,9.72 -2.805,-1.78 -4.089,-5.43 -5.814,-8.79 z"
       id="path103"
       style="display:block" />
  </g>
  <g
     inkscape:groupmode="layer"
     id="layer2"
     inkscape:label="Numbers"
     style="display:inline">
    <g
       id="g233"
       inkscape:label="Ones"
       style="fill:url(#linearGradient236)">
      <text
         xml:space="preserve"
         style="font-size:76.0942px;text-align:start;writing-mode:lr-tb;direction:ltr;text-anchor:start;display:block;fill:url(#linearGradient236);fill-opacity:1;stroke:none;stroke-width:14.5833;stroke-linecap:round;stroke-linejoin:round"
         x="710.15686"
         y="1557.0311"
         id="text185"
         inkscape:label="One"><tspan
           sodipodi:role="line"
           id="tspan185"
           style="font-style:normal;font-variant:normal;font-weight:bold;font-stretch:semi-condensed;font-family:'Monoid Nerd Font Mono';-inkscape-font-specification:'Monoid Nerd Font Mono Bold Semi-Condensed';stroke-width:14.5833;fill:url(#linearGradient236)"
           x="710.15686"
           y="1557.0311">1</tspan></text>
      <text
         xml:space="preserve"
         style="font-size:62.6188px;text-align:start;writing-mode:lr-tb;direction:ltr;text-anchor:start;display:block;fill:url(#linearGradient236);fill-opacity:1;stroke:none;stroke-width:12.0008;stroke-linecap:round;stroke-linejoin:round"
         x="801.78937"
         y="1597.1205"
         id="text186"
         inkscape:label="One"><tspan
           sodipodi:role="line"
           id="tspan186"
           style="font-style:normal;font-variant:normal;font-weight:bold;font-stretch:semi-condensed;font-family:'Monoid Nerd Font Mono';-inkscape-font-specification:'Monoid Nerd Font Mono Bold Semi-Condensed';stroke-width:12.0008;fill:url(#linearGradient236)"
           x="801.78937"
           y="1597.1205">1</tspan></text>
      <text
         xml:space="preserve"
         style="font-size:59.4337px;text-align:start;writing-mode:lr-tb;direction:ltr;text-anchor:start;display:block;fill:url(#linearGradient236);fill-opacity:1;stroke:none;stroke-width:11.3904;stroke-linecap:round;stroke-linejoin:round"
         x="651.92676"
         y="1588.4736"
         id="text187"
         inkscape:label="One"><tspan
           sodipodi:role="line"
           id="tspan187"
           style="font-style:normal;font-variant:normal;font-weight:bold;font-stretch:semi-condensed;font-family:'Monoid Nerd Font Mono';-inkscape-font-specification:'Monoid Nerd Font Mono Bold Semi-Condensed';stroke-width:11.3904;fill:url(#linearGradient236)"
           x="651.92676"
           y="1588.4736">1</tspan></text>
      <text
         xml:space="preserve"
         style="font-size:59.4337px;text-align:start;writing-mode:lr-tb;direction:ltr;text-anchor:start;display:block;fill:url(#linearGradient236);fill-opacity:1;stroke:none;stroke-width:11.3904;stroke-linecap:round;stroke-linejoin:round"
         x="452.46274"
         y="1082.826"
         id="text188"
         inkscape:label="One"><tspan
           sodipodi:role="line"
           id="tspan188"
           style="font-style:normal;font-variant:normal;font-weight:bold;font-stretch:semi-condensed;font-family:'Monoid Nerd Font Mono';-inkscape-font-specification:'Monoid Nerd Font Mono Bold Semi-Condensed';stroke-width:11.3904;fill:url(#linearGradient236)"
           x="452.46274"
           y="1082.826">1</tspan></text>
      <text
         xml:space="preserve"
         style="font-size:51.1179px;text-align:start;writing-mode:lr-tb;direction:ltr;text-anchor:start;display:block;fill:url(#linearGradient236);fill-opacity:1;stroke:none;stroke-width:9.79668;stroke-linecap:round;stroke-linejoin:round"
         x="385.99399"
         y="1021.2082"
         id="text189"
         inkscape:label="One"><tspan
           sodipodi:role="line"
           id="tspan189"
           style="font-style:normal;font-variant:normal;font-weight:bold;font-stretch:semi-condensed;font-family:'Monoid Nerd Font Mono';-inkscape-font-specification:'Monoid Nerd Font Mono Bold Semi-Condensed';stroke-width:9.79668;fill:url(#linearGradient236)"
           x="385.99399"
           y="1021.2082">1</tspan></text>
      <text
         xml:space="preserve"
         style="font-size:51.1179px;text-align:start;writing-mode:lr-tb;direction:ltr;text-anchor:start;display:block;fill:url(#linearGradient236);fill-opacity:1;stroke:none;stroke-width:9.79668;stroke-linecap:round;stroke-linejoin:round"
         x="322.78802"
         y="1086.9551"
         id="text190"
         inkscape:label="One"><tspan
           sodipodi:role="line"
           id="tspan190"
           style="font-style:normal;font-variant:normal;font-weight:bold;font-stretch:semi-condensed;font-family:'Monoid Nerd Font Mono';-inkscape-font-specification:'Monoid Nerd Font Mono Bold Semi-Condensed';stroke-width:9.79668;fill:url(#linearGradient236)"
           x="322.78802"
           y="1086.9551">1</tspan></text>
      <text
         xml:space="preserve"
         style="font-size:68.7584px;text-align:start;writing-mode:lr-tb;direction:ltr;text-anchor:start;display:block;fill:url(#linearGradient236);fill-opacity:1;stroke:none;stroke-width:13.1775;stroke-linecap:round;stroke-linejoin:round"
         x="676.25146"
         y="593.75598"
         id="text191"
         inkscape:label="One"><tspan
           sodipodi:role="line"
           id="tspan191"
           style="font-style:normal;font-variant:normal;font-weight:bold;font-stretch:semi-condensed;font-family:'Monoid Nerd Font Mono';-inkscape-font-specification:'Monoid Nerd Font Mono Bold Semi-Condensed';stroke-width:13.1775;fill:url(#linearGradient236)"
           x="676.25146"
           y="593.75598">1</tspan></text>
      <text
         xml:space="preserve"
         style="font-size:55.038px;text-align:start;writing-mode:lr-tb;direction:ltr;text-anchor:start;display:block;fill:url(#linearGradient236);fill-opacity:1;stroke:none;stroke-width:10.548;stroke-linecap:round;stroke-linejoin:round"
         x="592.78577"
         y="527.2774"
         id="text192"
         inkscape:label="One"><tspan
           sodipodi:role="line"
           id="tspan192"
           style="font-style:normal;font-variant:normal;font-weight:bold;font-stretch:semi-condensed;font-family:'Monoid Nerd Font Mono';-inkscape-font-specification:'Monoid Nerd Font Mono Bold Semi-Condensed';stroke-width:10.548;fill:url(#linearGradient236)"
           x="592.78577"
           y="527.2774">1</tspan></text>
      <text
         xml:space="preserve"
         style="font-size:68.7584px;text-align:start;writing-mode:lr-tb;direction:ltr;text-anchor:start;display:block;fill:url(#linearGradient236);fill-opacity:1;stroke:none;stroke-width:13.1775;stroke-linecap:round;stroke-linejoin:round"
         x="840.65118"
         y="502.12335"
         id="text193"
         inkscape:label="One"><tspan
           sodipodi:role="line"
           id="tspan193"
           style="font-style:normal;font-variant:normal;font-weight:bold;font-stretch:semi-condensed;font-family:'Monoid Nerd Font Mono';-inkscape-font-specification:'Monoid Nerd Font Mono Bold Semi-Condensed';stroke-width:13.1775;fill:url(#linearGradient236)"
           x="840.65118"
           y="502.12335">1</tspan></text>
      <text
         xml:space="preserve"
         style="font-size:64.6005px;text-align:start;writing-mode:lr-tb;direction:ltr;text-anchor:start;display:block;fill:url(#linearGradient236);fill-opacity:1;stroke:none;stroke-width:12.3806;stroke-linecap:round;stroke-linejoin:round"
         x="1226.99"
         y="547.2251"
         id="text194"
         inkscape:label="One"><tspan
           sodipodi:role="line"
           id="tspan194"
           style="font-style:normal;font-variant:normal;font-weight:bold;font-stretch:semi-condensed;font-family:'Monoid Nerd Font Mono';-inkscape-font-specification:'Monoid Nerd Font Mono Bold Semi-Condensed';stroke-width:12.3806;fill:url(#linearGradient236)"
           x="1226.99"
           y="547.2251">1</tspan></text>
      <text
         xml:space="preserve"
         style="font-size:53.1663px;text-align:start;writing-mode:lr-tb;direction:ltr;text-anchor:start;display:block;fill:url(#linearGradient236);fill-opacity:1;stroke:none;stroke-width:10.1892;stroke-linecap:round;stroke-linejoin:round"
         x="1314.6525"
         y="477.82559"
         id="text195"
         inkscape:label="One"><tspan
           sodipodi:role="line"
           id="tspan195"
           style="font-style:normal;font-variant:normal;font-weight:bold;font-stretch:semi-condensed;font-family:'Monoid Nerd Font Mono';-inkscape-font-specification:'Monoid Nerd Font Mono Bold Semi-Condensed';stroke-width:10.1892;fill:url(#linearGradient236)"
           x="1314.6525"
           y="477.82559">1</tspan></text>
      <text
         xml:space="preserve"
         style="font-size:62.8681px;text-align:start;writing-mode:lr-tb;direction:ltr;text-anchor:start;display:block;fill:url(#linearGradient236);fill-opacity:1;stroke:none;stroke-width:12.0485;stroke-linecap:round;stroke-linejoin:round"
         x="1397.1754"
         y="623.29456"
         id="text196"
         inkscape:label="One"><tspan
           sodipodi:role="line"
           id="tspan196"
           style="font-style:normal;font-variant:normal;font-weight:bold;font-stretch:semi-condensed;font-family:'Monoid Nerd Font Mono';-inkscape-font-specification:'Monoid Nerd Font Mono Bold Semi-Condensed';stroke-width:12.0485;fill:url(#linearGradient236)"
           x="1397.1754"
           y="623.29456">1</tspan></text>
      <text
         xml:space="preserve"
         style="font-size:54.7829px;text-align:start;writing-mode:lr-tb;direction:ltr;text-anchor:start;display:block;fill:url(#linearGradient236);fill-opacity:1;stroke:none;stroke-width:10.499;stroke-linecap:round;stroke-linejoin:round"
         x="1609.1881"
         y="1003.1882"
         id="text197"
         inkscape:label="One"><tspan
           sodipodi:role="line"
           id="tspan197"
           style="font-style:normal;font-variant:normal;font-weight:bold;font-stretch:semi-condensed;font-family:'Monoid Nerd Font Mono';-inkscape-font-specification:'Monoid Nerd Font Mono Bold Semi-Condensed';stroke-width:10.499;fill:url(#linearGradient236)"
           x="1609.1881"
           y="1003.1882">1</tspan></text>
      <text
         xml:space="preserve"
         style="font-size:49.8828px;text-align:start;writing-mode:lr-tb;direction:ltr;text-anchor:start;display:block;fill:url(#linearGradient236);fill-opacity:1;stroke:none;stroke-width:9.5599;stroke-linecap:round;stroke-linejoin:round"
         x="1675.5034"
         y="1054.3947"
         id="text198"
         inkscape:label="One"><tspan
           sodipodi:role="line"
           id="tspan198"
           style="font-style:normal;font-variant:normal;font-weight:bold;font-stretch:semi-condensed;font-family:'Monoid Nerd Font Mono';-inkscape-font-specification:'Monoid Nerd Font Mono Bold Semi-Condensed';stroke-width:9.5599;fill:url(#linearGradient236)"
           x="1675.5034"
           y="1054.3947">1</tspan></text>
      <text
         xml:space="preserve"
         style="font-size:62.6232px;text-align:start;writing-mode:lr-tb;direction:ltr;text-anchor:start;display:block;fill:url(#linearGradient236);fill-opacity:1;stroke:none;stroke-width:12.0016;stroke-linecap:round;stroke-linejoin:round"
         x="1536.952"
         y="1076.8536"
         id="text199"
         inkscape:label="One"><tspan
           sodipodi:role="line"
           id="tspan199"
           style="font-style:normal;font-variant:normal;font-weight:bold;font-stretch:semi-condensed;font-family:'Monoid Nerd Font Mono';-inkscape-font-specification:'Monoid Nerd Font Mono Bold Semi-Condensed';stroke-width:12.0016;fill:url(#linearGradient236)"
           x="1536.952"
           y="1076.8536">1</tspan></text>
      <text
         xml:space="preserve"
         style="font-size:62.6232px;text-align:start;writing-mode:lr-tb;direction:ltr;text-anchor:start;display:block;fill:url(#linearGradient236);fill-opacity:1;stroke:none;stroke-width:12.0016;stroke-linecap:round;stroke-linejoin:round"
         x="1375.2474"
         y="1494.5906"
         id="text200"
         inkscape:label="One"><tspan
           sodipodi:role="line"
           id="tspan200"
           style="font-style:normal;font-variant:normal;font-weight:bold;font-stretch:semi-condensed;font-family:'Monoid Nerd Font Mono';-inkscape-font-specification:'Monoid Nerd Font Mono Bold Semi-Condensed';stroke-width:12.0016;fill:url(#linearGradient236)"
           x="1375.2474"
           y="1494.5906">1</tspan></text>
      <text
         xml:space="preserve"
         style="font-size:52.9214px;text-align:start;writing-mode:lr-tb;direction:ltr;text-anchor:start;display:block;fill:url(#linearGradient236);fill-opacity:1;stroke:none;stroke-width:10.1423;stroke-linecap:round;stroke-linejoin:round"
         x="1339.0967"
         y="1589.876"
         id="text201"
         inkscape:label="One"><tspan
           sodipodi:role="line"
           id="tspan201"
           style="font-style:normal;font-variant:normal;font-weight:bold;font-stretch:semi-condensed;font-family:'Monoid Nerd Font Mono';-inkscape-font-specification:'Monoid Nerd Font Mono Bold Semi-Condensed';stroke-width:10.1423;fill:url(#linearGradient236)"
           x="1339.0967"
           y="1589.876">1</tspan></text>
    </g>
    <g
       id="g232"
       inkscape:label="Zeroes"
       style="fill:url(#linearGradient234)">
      <text
         xml:space="preserve"
         style="font-size:63.9315px;text-align:start;writing-mode:lr-tb;direction:ltr;text-anchor:start;display:block;fill:url(#linearGradient234);fill-opacity:1;stroke:none;stroke-width:12.2524;stroke-linecap:round;stroke-linejoin:round"
         x="616.25635"
         y="1495.5558"
         id="text218"
         inkscape:label="One"><tspan
           sodipodi:role="line"
           id="tspan218"
           style="font-style:normal;font-variant:normal;font-weight:bold;font-stretch:semi-condensed;font-family:'Monoid Nerd Font Mono';-inkscape-font-specification:'Monoid Nerd Font Mono Bold Semi-Condensed';stroke-width:12.2524;fill:url(#linearGradient234)"
           x="616.25635"
           y="1495.5558">0</tspan></text>
      <text
         xml:space="preserve"
         style="font-size:59.8773px;text-align:start;writing-mode:lr-tb;direction:ltr;text-anchor:start;display:block;fill:url(#linearGradient234);fill-opacity:1;stroke:none;stroke-width:11.4754;stroke-linecap:round;stroke-linejoin:round"
         x="451.34494"
         y="1203.3949"
         id="text219"
         inkscape:label="One"><tspan
           sodipodi:role="line"
           id="tspan219"
           style="font-style:normal;font-variant:normal;font-weight:bold;font-stretch:semi-condensed;font-family:'Monoid Nerd Font Mono';-inkscape-font-specification:'Monoid Nerd Font Mono Bold Semi-Condensed';stroke-width:11.4754;fill:url(#linearGradient234)"
           x="451.34494"
           y="1203.3949">0</tspan></text>
      <text
         xml:space="preserve"
         style="font-size:46.3631px;text-align:start;writing-mode:lr-tb;direction:ltr;text-anchor:start;display:block;fill:url(#linearGradient234);fill-opacity:1;stroke:none;stroke-width:8.88543;stroke-linecap:round;stroke-linejoin:round"
         x="389.07776"
         y="1138.7593"
         id="text220"
         inkscape:label="One"><tspan
           sodipodi:role="line"
           id="tspan220"
           style="font-style:normal;font-variant:normal;font-weight:bold;font-stretch:semi-condensed;font-family:'Monoid Nerd Font Mono';-inkscape-font-specification:'Monoid Nerd Font Mono Bold Semi-Condensed';stroke-width:8.88543;fill:url(#linearGradient234)"
           x="389.07776"
           y="1138.7593">0</tspan></text>
      <text
         xml:space="preserve"
         style="font-size:59.2016px;text-align:start;writing-mode:lr-tb;direction:ltr;text-anchor:start;display:block;fill:url(#linearGradient234);fill-opacity:1;stroke:none;stroke-width:11.3459;stroke-linecap:round;stroke-linejoin:round"
         x="452.8688"
         y="962.01331"
         id="text221"
         inkscape:label="One"><tspan
           sodipodi:role="line"
           id="tspan221"
           style="font-style:normal;font-variant:normal;font-weight:bold;font-stretch:semi-condensed;font-family:'Monoid Nerd Font Mono';-inkscape-font-specification:'Monoid Nerd Font Mono Bold Semi-Condensed';stroke-width:11.3459;fill:url(#linearGradient234)"
           x="452.8688"
           y="962.01331">0</tspan></text>
      <text
         xml:space="preserve"
         style="font-size:59.2016px;text-align:start;writing-mode:lr-tb;direction:ltr;text-anchor:start;display:block;fill:url(#linearGradient234);fill-opacity:1;stroke:none;stroke-width:11.3459;stroke-linecap:round;stroke-linejoin:round"
         x="592.3031"
         y="631.84955"
         id="text222"
         inkscape:label="One"><tspan
           sodipodi:role="line"
           id="tspan222"
           style="font-style:normal;font-variant:normal;font-weight:bold;font-stretch:semi-condensed;font-family:'Monoid Nerd Font Mono';-inkscape-font-specification:'Monoid Nerd Font Mono Bold Semi-Condensed';stroke-width:11.3459;fill:url(#linearGradient234)"
           x="592.3031"
           y="631.84955">0</tspan></text>
      <text
         xml:space="preserve"
         style="font-size:59.2016px;text-align:start;writing-mode:lr-tb;direction:ltr;text-anchor:start;display:block;fill:url(#linearGradient234);fill-opacity:1;stroke:none;stroke-width:11.3459;stroke-linecap:round;stroke-linejoin:round"
         x="763.81677"
         y="544.82227"
         id="text223"
         inkscape:label="One"><tspan
           sodipodi:role="line"
           id="tspan223"
           style="font-style:normal;font-variant:normal;font-weight:bold;font-stretch:semi-condensed;font-family:'Monoid Nerd Font Mono';-inkscape-font-specification:'Monoid Nerd Font Mono Bold Semi-Condensed';stroke-width:11.3459;fill:url(#linearGradient234)"
           x="763.81677"
           y="544.82227">0</tspan></text>
      <text
         xml:space="preserve"
         style="font-size:44.0976px;text-align:start;writing-mode:lr-tb;direction:ltr;text-anchor:start;display:block;fill:url(#linearGradient234);fill-opacity:1;stroke:none;stroke-width:8.45124;stroke-linecap:round;stroke-linejoin:round"
         x="686.90015"
         y="470.56461"
         id="text224"
         inkscape:label="One"><tspan
           sodipodi:role="line"
           id="tspan224"
           style="font-style:normal;font-variant:normal;font-weight:bold;font-stretch:semi-condensed;font-family:'Monoid Nerd Font Mono';-inkscape-font-specification:'Monoid Nerd Font Mono Bold Semi-Condensed';stroke-width:8.45124;fill:url(#linearGradient234)"
           x="686.90015"
           y="470.56461">0</tspan></text>
      <text
         xml:space="preserve"
         style="font-size:58.9632px;text-align:start;writing-mode:lr-tb;direction:ltr;text-anchor:start;display:block;fill:url(#linearGradient234);fill-opacity:1;stroke:none;stroke-width:11.3002;stroke-linecap:round;stroke-linejoin:round"
         x="1150.1295"
         y="500.24649"
         id="text225"
         inkscape:label="One"><tspan
           sodipodi:role="line"
           id="tspan225"
           style="font-style:normal;font-variant:normal;font-weight:bold;font-stretch:semi-condensed;font-family:'Monoid Nerd Font Mono';-inkscape-font-specification:'Monoid Nerd Font Mono Bold Semi-Condensed';stroke-width:11.3002;fill:url(#linearGradient234)"
           x="1150.1295"
           y="500.24649">0</tspan></text>
      <text
         xml:space="preserve"
         style="font-size:58.9632px;text-align:start;writing-mode:lr-tb;direction:ltr;text-anchor:start;display:block;fill:url(#linearGradient234);fill-opacity:1;stroke:none;stroke-width:11.3002;stroke-linecap:round;stroke-linejoin:round"
         x="1314.6555"
         y="580.28619"
         id="text226"
         inkscape:label="One"><tspan
           sodipodi:role="line"
           id="tspan226"
           style="font-style:normal;font-variant:normal;font-weight:bold;font-stretch:semi-condensed;font-family:'Monoid Nerd Font Mono';-inkscape-font-specification:'Monoid Nerd Font Mono Bold Semi-Condensed';stroke-width:11.3002;fill:url(#linearGradient234)"
           x="1314.6555"
           y="580.28619">0</tspan></text>
      <text
         xml:space="preserve"
         style="font-size:52.2061px;text-align:start;writing-mode:lr-tb;direction:ltr;text-anchor:start;display:block;fill:url(#linearGradient234);fill-opacity:1;stroke:none;stroke-width:10.0052;stroke-linecap:round;stroke-linejoin:round"
         x="1400.4053"
         y="511.12469"
         id="text227"
         inkscape:label="One"><tspan
           sodipodi:role="line"
           id="tspan227"
           style="font-style:normal;font-variant:normal;font-weight:bold;font-stretch:semi-condensed;font-family:'Monoid Nerd Font Mono';-inkscape-font-specification:'Monoid Nerd Font Mono Bold Semi-Condensed';stroke-width:10.0052;fill:url(#linearGradient234)"
           x="1400.4053"
           y="511.12469">0</tspan></text>
      <text
         xml:space="preserve"
         style="font-size:57.6118px;text-align:start;writing-mode:lr-tb;direction:ltr;text-anchor:start;display:block;fill:url(#linearGradient234);fill-opacity:1;stroke:none;stroke-width:11.0412;stroke-linecap:round;stroke-linejoin:round"
         x="1539.4005"
         y="965.25488"
         id="text228"
         inkscape:label="One"><tspan
           sodipodi:role="line"
           id="tspan228"
           style="font-style:normal;font-variant:normal;font-weight:bold;font-stretch:semi-condensed;font-family:'Monoid Nerd Font Mono';-inkscape-font-specification:'Monoid Nerd Font Mono Bold Semi-Condensed';stroke-width:11.0412;fill:url(#linearGradient234)"
           x="1539.4005"
           y="965.25488">0</tspan></text>
      <text
         xml:space="preserve"
         style="font-size:49.5033px;text-align:start;writing-mode:lr-tb;direction:ltr;text-anchor:start;display:block;fill:url(#linearGradient234);fill-opacity:1;stroke:none;stroke-width:9.48722;stroke-linecap:round;stroke-linejoin:round"
         x="1612.3171"
         y="1122.2531"
         id="text229"
         inkscape:label="One"><tspan
           sodipodi:role="line"
           id="tspan229"
           style="font-style:normal;font-variant:normal;font-weight:bold;font-stretch:semi-condensed;font-family:'Monoid Nerd Font Mono';-inkscape-font-specification:'Monoid Nerd Font Mono Bold Semi-Condensed';stroke-width:9.48722;fill:url(#linearGradient234)"
           x="1612.3171"
           y="1122.2531">0</tspan></text>
      <text
         xml:space="preserve"
         style="font-size:63.0175px;text-align:start;writing-mode:lr-tb;direction:ltr;text-anchor:start;display:block;fill:url(#linearGradient234);fill-opacity:1;stroke:none;stroke-width:12.0772;stroke-linecap:round;stroke-linejoin:round"
         x="1538.0085"
         y="1190.7001"
         id="text230"
         inkscape:label="One"><tspan
           sodipodi:role="line"
           id="tspan230"
           style="font-style:normal;font-variant:normal;font-weight:bold;font-stretch:semi-condensed;font-family:'Monoid Nerd Font Mono';-inkscape-font-specification:'Monoid Nerd Font Mono Bold Semi-Condensed';stroke-width:12.0772;fill:url(#linearGradient234)"
           x="1538.0085"
           y="1190.7001">0</tspan></text>
      <text
         xml:space="preserve"
         style="font-size:63.0175px;text-align:start;writing-mode:lr-tb;direction:ltr;text-anchor:start;display:block;fill:url(#linearGradient234);fill-opacity:1;stroke:none;stroke-width:12.0772;stroke-linecap:round;stroke-linejoin:round"
         x="1276.2914"
         y="1548.973"
         id="text231"
         inkscape:label="One"><tspan
           sodipodi:role="line"
           id="tspan231"
           style="font-style:normal;font-variant:normal;font-weight:bold;font-stretch:semi-condensed;font-family:'Monoid Nerd Font Mono';-inkscape-font-specification:'Monoid Nerd Font Mono Bold Semi-Condensed';stroke-width:12.0772;fill:url(#linearGradient234)"
           x="1276.2914"
           y="1548.973">0</tspan></text>
      <text
         xml:space="preserve"
         style="font-size:49.5033px;text-align:start;writing-mode:lr-tb;direction:ltr;text-anchor:start;display:block;fill:url(#linearGradient234);fill-opacity:1;stroke:none;stroke-width:9.48723;stroke-linecap:round;stroke-linejoin:round"
         x="1191.1558"
         y="1603.7617"
         id="text232"
         inkscape:label="One"><tspan
           sodipodi:role="line"
           id="tspan232"
           style="font-style:normal;font-variant:normal;font-weight:bold;font-stretch:semi-condensed;font-family:'Monoid Nerd Font Mono';-inkscape-font-specification:'Monoid Nerd Font Mono Bold Semi-Condensed';stroke-width:9.48723;fill:url(#linearGradient234)"
           x="1191.1558"
           y="1603.7617">0</tspan></text>
    </g>
  </g>
  <g
     inkscape:groupmode="layer"
     id="layer4"
     inkscape:label="Stars"
     style="display:inline">
    <g
       id="g240"
       transform="translate(-61.98677,17.74259)"
       style="display:inline"
       inkscape:label="Star">
      <circle
         style="fill:#193d6f;fill-opacity:1;stroke:none;stroke-width:46.7257;stroke-linecap:round;stroke-linejoin:round"
         id="circle240"
         cx="1663.6824"
         cy="676.84369"
         r="44.466499" />
      <circle
         style="fill:#3ea4ea;fill-opacity:1;stroke:none;stroke-width:32.708;stroke-linecap:round;stroke-linejoin:round"
         id="path240"
         cx="1663.6824"
         cy="676.84369"
         r="31.126551" />
      <path
         id="path236"
         style="fill:#5fdaf9;fill-opacity:1;stroke:none;stroke-width:16.4268;stroke-linecap:round;stroke-linejoin:round"
         d="m 1663.7838,619.86555 c -6.1316,50.17568 -7.5307,52.41424 -58.9798,56.12932 50.6364,3.6564 52.7694,5.30863 58.9798,56.12932 6.2756,-51.34802 8.0329,-52.45919 58.9916,-56.12932 -51.5452,-3.71237 -52.7893,-5.3811 -58.9916,-56.12932 z"
         sodipodi:nodetypes="ccccc" />
    </g>
    <g
       id="g243"
       transform="matrix(0.30702977,0,0,0.30702977,1054.5864,585.45558)"
       style="display:inline"
       inkscape:label="Star">
      <circle
         style="fill:#193d6f;fill-opacity:1;stroke:none;stroke-width:46.7257;stroke-linecap:round;stroke-linejoin:round"
         id="circle242"
         cx="1663.6824"
         cy="676.84369"
         r="44.466499" />
      <circle
         style="fill:#3ea4ea;fill-opacity:1;stroke:none;stroke-width:32.708;stroke-linecap:round;stroke-linejoin:round"
         id="circle243"
         cx="1663.6824"
         cy="676.84369"
         r="31.126551" />
      <path
         id="path243"
         style="fill:#5fdaf9;fill-opacity:1;stroke:none;stroke-width:16.4268;stroke-linecap:round;stroke-linejoin:round"
         d="m 1663.7838,619.86555 c -6.1316,50.17568 -7.5307,52.41424 -58.9798,56.12932 50.6364,3.6564 52.7694,5.30863 58.9798,56.12932 6.2756,-51.34802 8.0329,-52.45919 58.9916,-56.12932 -51.5452,-3.71237 -52.7893,-5.3811 -58.9916,-56.12932 z"
         sodipodi:nodetypes="ccccc" />
    </g>
    <g
       id="g245"
       transform="matrix(0.85999887,0,0,0.85999887,-209.18843,207.03275)"
       style="display:inline"
       inkscape:label="Star">
      <circle
         style="fill:#3ea4ea;fill-opacity:1;stroke:none;stroke-width:32.708;stroke-linecap:round;stroke-linejoin:round"
         id="circle245"
         cx="1663.6824"
         cy="676.84369"
         r="31.126551" />
      <path
         id="path245"
         style="fill:#5fdaf9;fill-opacity:1;stroke:none;stroke-width:16.4268;stroke-linecap:round;stroke-linejoin:round"
         d="m 1663.7838,619.86555 c -6.1316,50.17568 -7.5307,52.41424 -58.9798,56.12932 50.6364,3.6564 52.7694,5.30863 58.9798,56.12932 6.2756,-51.34802 8.0329,-52.45919 58.9916,-56.12932 -51.5452,-3.71237 -52.7893,-5.3811 -58.9916,-56.12932 z"
         sodipodi:nodetypes="ccccc" />
    </g>
    <g
       id="g247"
       transform="matrix(0.40730446,0,0,0.40730446,412.13396,595.63249)"
       style="display:inline"
       inkscape:label="Star">
      <circle
         style="fill:#3ea4ea;fill-opacity:1;stroke:none;stroke-width:32.708;stroke-linecap:round;stroke-linejoin:round"
         id="circle247"
         cx="1663.6824"
         cy="676.84369"
         r="31.126551" />
      <path
         id="path247"
         style="fill:#5fdaf9;fill-opacity:1;stroke:none;stroke-width:16.4268;stroke-linecap:round;stroke-linejoin:round"
         d="m 1663.7838,619.86555 c -6.1316,50.17568 -7.5307,52.41424 -58.9798,56.12932 50.6364,3.6564 52.7694,5.30863 58.9798,56.12932 6.2756,-51.34802 8.0329,-52.45919 58.9916,-56.12932 -51.5452,-3.71237 -52.7893,-5.3811 -58.9916,-56.12932 z"
         sodipodi:nodetypes="ccccc" />
    </g>
    <g
       id="g249"
       transform="matrix(0.20359198,0,0,0.20359198,806.96943,591.68351)"
       style="display:inline"
       inkscape:label="Star">
      <circle
         style="fill:#3ea4ea;fill-opacity:1;stroke:none;stroke-width:32.708;stroke-linecap:round;stroke-linejoin:round"
         id="circle249"
         cx="1663.6824"
         cy="676.84369"
         r="31.126551" />
      <path
         id="path249"
         style="fill:#5fdaf9;fill-opacity:1;stroke:none;stroke-width:16.4268;stroke-linecap:round;stroke-linejoin:round"
         d="m 1663.7838,619.86555 c -6.1316,50.17568 -7.5307,52.41424 -58.9798,56.12932 50.6364,3.6564 52.7694,5.30863 58.9798,56.12932 6.2756,-51.34802 8.0329,-52.45919 58.9916,-56.12932 -51.5452,-3.71237 -52.7893,-5.3811 -58.9916,-56.12932 z"
         sodipodi:nodetypes="ccccc" />
    </g>
    <g
       id="g251"
       transform="matrix(0.20359198,0,0,0.20359198,932.11087,559.28649)"
       style="display:inline"
       inkscape:label="Star">
      <circle
         style="fill:#3ea4ea;fill-opacity:1;stroke:none;stroke-width:32.708;stroke-linecap:round;stroke-linejoin:round"
         id="circle251"
         cx="1663.6824"
         cy="676.84369"
         r="31.126551" />
      <path
         id="path251"
         style="fill:#5fdaf9;fill-opacity:1;stroke:none;stroke-width:16.4268;stroke-linecap:round;stroke-linejoin:round"
         d="m 1663.7838,619.86555 c -6.1316,50.17568 -7.5307,52.41424 -58.9798,56.12932 50.6364,3.6564 52.7694,5.30863 58.9798,56.12932 6.2756,-51.34802 8.0329,-52.45919 58.9916,-56.12932 -51.5452,-3.71237 -52.7893,-5.3811 -58.9916,-56.12932 z"
         sodipodi:nodetypes="ccccc" />
    </g>
    <g
       id="g253"
       transform="matrix(0.66774174,0,0,0.66774174,261.3778,528.50671)"
       style="display:inline"
       inkscape:label="Star">
      <circle
         style="fill:#3ea4ea;fill-opacity:1;stroke:none;stroke-width:32.708;stroke-linecap:round;stroke-linejoin:round"
         id="circle253"
         cx="1663.6824"
         cy="676.84369"
         r="31.126551" />
      <path
         id="path253"
         style="fill:#5fdaf9;fill-opacity:1;stroke:none;stroke-width:16.4268;stroke-linecap:round;stroke-linejoin:round"
         d="m 1663.7838,619.86555 c -6.1316,50.17568 -7.5307,52.41424 -58.9798,56.12932 50.6364,3.6564 52.7694,5.30863 58.9798,56.12932 6.2756,-51.34802 8.0329,-52.45919 58.9916,-56.12932 -51.5452,-3.71237 -52.7893,-5.3811 -58.9916,-56.12932 z"
         sodipodi:nodetypes="ccccc" />
    </g>
    <g
       id="g255"
       transform="matrix(0.2356023,0,0,0.2356023,1019.8947,727.20142)"
       style="display:inline"
       inkscape:label="Star">
      <circle
         style="fill:#193d6f;fill-opacity:1;stroke:none;stroke-width:46.7257;stroke-linecap:round;stroke-linejoin:round"
         id="circle254"
         cx="1663.6824"
         cy="676.84369"
         r="44.466499" />
      <circle
         style="fill:#3ea4ea;fill-opacity:1;stroke:none;stroke-width:32.708;stroke-linecap:round;stroke-linejoin:round"
         id="circle255"
         cx="1663.6824"
         cy="676.84369"
         r="31.126551" />
      <path
         id="path255"
         style="fill:#5fdaf9;fill-opacity:1;stroke:none;stroke-width:16.4268;stroke-linecap:round;stroke-linejoin:round"
         d="m 1663.7838,619.86555 c -6.1316,50.17568 -7.5307,52.41424 -58.9798,56.12932 50.6364,3.6564 52.7694,5.30863 58.9798,56.12932 6.2756,-51.34802 8.0329,-52.45919 58.9916,-56.12932 -51.5452,-3.71237 -52.7893,-5.3811 -58.9916,-56.12932 z"
         sodipodi:nodetypes="ccccc" />
    </g>
    <g
       id="g257"
       transform="matrix(0.41165911,0,0,0.41165911,876.9992,1025.9249)"
       style="display:inline"
       inkscape:label="Star">
      <circle
         style="fill:#3ea4ea;fill-opacity:1;stroke:none;stroke-width:32.708;stroke-linecap:round;stroke-linejoin:round"
         id="circle257"
         cx="1663.6824"
         cy="676.84369"
         r="31.126551" />
      <path
         id="path257"
         style="fill:#5fdaf9;fill-opacity:1;stroke:none;stroke-width:16.4268;stroke-linecap:round;stroke-linejoin:round"
         d="m 1663.7838,619.86555 c -6.1316,50.17568 -7.5307,52.41424 -58.9798,56.12932 50.6364,3.6564 52.7694,5.30863 58.9798,56.12932 6.2756,-51.34802 8.0329,-52.45919 58.9916,-56.12932 -51.5452,-3.71237 -52.7893,-5.3811 -58.9916,-56.12932 z"
         sodipodi:nodetypes="ccccc" />
    </g>
    <g
       id="g259"
       transform="matrix(1.4199845,0,0,1.4199845,-828.49126,462.88554)"
       style="display:inline"
       inkscape:label="Star">
      <circle
         style="fill:#193d6f;fill-opacity:1;stroke:none;stroke-width:46.7257;stroke-linecap:round;stroke-linejoin:round"
         id="circle258"
         cx="1663.6824"
         cy="676.84369"
         r="44.466499" />
      <circle
         style="fill:#3ea4ea;fill-opacity:1;stroke:none;stroke-width:32.708;stroke-linecap:round;stroke-linejoin:round"
         id="circle259"
         cx="1663.6824"
         cy="676.84369"
         r="31.126551" />
      <path
         id="path259"
         style="fill:#5fdaf9;fill-opacity:1;stroke:none;stroke-width:16.4268;stroke-linecap:round;stroke-linejoin:round"
         d="m 1663.7838,619.86555 c -6.1316,50.17568 -7.5307,52.41424 -58.9798,56.12932 50.6364,3.6564 52.7694,5.30863 58.9798,56.12932 6.2756,-51.34802 8.0329,-52.45919 58.9916,-56.12932 -51.5452,-3.71237 -52.7893,-5.3811 -58.9916,-56.12932 z"
         sodipodi:nodetypes="ccccc" />
    </g>
    <g
       id="g261"
       transform="matrix(0.24726565,0,0,0.24726565,823.71205,1211.5728)"
       style="display:inline"
       inkscape:label="Star">
      <circle
         style="fill:#3ea4ea;fill-opacity:1;stroke:none;stroke-width:32.708;stroke-linecap:round;stroke-linejoin:round"
         id="circle261"
         cx="1663.6824"
         cy="676.84369"
         r="31.126551" />
      <path
         id="path261"
         style="fill:#5fdaf9;fill-opacity:1;stroke:none;stroke-width:16.4268;stroke-linecap:round;stroke-linejoin:round"
         d="m 1663.7838,619.86555 c -6.1316,50.17568 -7.5307,52.41424 -58.9798,56.12932 50.6364,3.6564 52.7694,5.30863 58.9798,56.12932 6.2756,-51.34802 8.0329,-52.45919 58.9916,-56.12932 -51.5452,-3.71237 -52.7893,-5.3811 -58.9916,-56.12932 z"
         sodipodi:nodetypes="ccccc" />
    </g>
    <g
       id="g263"
       transform="matrix(0.6603493,0,0,0.6603493,14.780092,963.45697)"
       style="display:inline"
       inkscape:label="Star">
      <circle
         style="fill:#3ea4ea;fill-opacity:1;stroke:none;stroke-width:32.708;stroke-linecap:round;stroke-linejoin:round"
         id="circle263"
         cx="1663.6824"
         cy="676.84369"
         r="31.126551" />
      <path
         id="path263"
         style="fill:#5fdaf9;fill-opacity:1;stroke:none;stroke-width:16.4268;stroke-linecap:round;stroke-linejoin:round"
         d="m 1663.7838,619.86555 c -6.1316,50.17568 -7.5307,52.41424 -58.9798,56.12932 50.6364,3.6564 52.7694,5.30863 58.9798,56.12932 6.2756,-51.34802 8.0329,-52.45919 58.9916,-56.12932 -51.5452,-3.71237 -52.7893,-5.3811 -58.9916,-56.12932 z"
         sodipodi:nodetypes="ccccc" />
    </g>
    <g
       id="g265"
       transform="matrix(0.82040094,0,0,0.82040094,-831.85209,878.62021)"
       style="display:inline"
       inkscape:label="Star">
      <circle
         style="fill:#854823;fill-opacity:1;stroke:none;stroke-width:32.708;stroke-linecap:round;stroke-linejoin:round"
         id="circle265"
         cx="1663.6824"
         cy="676.84369"
         r="31.126551" />
      <path
         id="path265"
         style="fill:#f6953b;fill-opacity:1;stroke:none;stroke-width:16.4268;stroke-linecap:round;stroke-linejoin:round"
         d="m 1663.7838,619.86555 c -6.1316,50.17568 -7.5307,52.41424 -58.9798,56.12932 50.6364,3.6564 52.7694,5.30863 58.9798,56.12932 6.2756,-51.34802 8.0329,-52.45919 58.9916,-56.12932 -51.5452,-3.71237 -52.7893,-5.3811 -58.9916,-56.12932 z"
         sodipodi:nodetypes="ccccc" />
    </g>
    <g
       id="g267"
       transform="matrix(0.52105222,0,0,0.52105222,-340.15113,284.07519)"
       style="display:inline"
       inkscape:label="Star">
      <circle
         style="fill:#854823;fill-opacity:1;stroke:none;stroke-width:32.708;stroke-linecap:round;stroke-linejoin:round"
         id="circle267"
         cx="1663.6824"
         cy="676.84369"
         r="31.126551" />
      <path
         id="path267"
         style="fill:#f6953b;fill-opacity:1;stroke:none;stroke-width:16.4268;stroke-linecap:round;stroke-linejoin:round"
         d="m 1663.7838,619.86555 c -6.1316,50.17568 -7.5307,52.41424 -58.9798,56.12932 50.6364,3.6564 52.7694,5.30863 58.9798,56.12932 6.2756,-51.34802 8.0329,-52.45919 58.9916,-56.12932 -51.5452,-3.71237 -52.7893,-5.3811 -58.9916,-56.12932 z"
         sodipodi:nodetypes="ccccc" />
    </g>
  </g>
</svg>
